G75*
%MOIN*%
%OFA0B0*%
%FSLAX25Y25*%
%IPPOS*%
%LPD*%
%AMOC8*
5,1,8,0,0,1.08239X$1,22.5*
%
%ADD10R,0.08674X0.05524*%
%ADD11R,0.06115X0.03162*%
%ADD12R,0.05131X0.04737*%
%ADD13R,0.04737X0.05131*%
%ADD14C,0.01990*%
%ADD15C,0.08200*%
%ADD16C,0.12800*%
%ADD17C,0.04737*%
%ADD18R,0.13400X0.05918*%
%ADD19R,0.11430X0.11430*%
%ADD20C,0.01378*%
D10*
X0118865Y0118976D03*
X0118865Y0141024D03*
D11*
X0133333Y0135906D03*
X0133333Y0131969D03*
X0133333Y0128031D03*
X0133333Y0124094D03*
D12*
X0166087Y0109700D03*
X0172780Y0109700D03*
X0126180Y0147500D03*
X0119487Y0147500D03*
X0169987Y0150500D03*
X0176680Y0150500D03*
X0176680Y0157000D03*
X0169987Y0157000D03*
D13*
X0186733Y0137346D03*
X0192733Y0137346D03*
X0192733Y0130654D03*
X0186733Y0130654D03*
X0178833Y0123346D03*
X0178833Y0116654D03*
X0152933Y0114246D03*
X0152933Y0107554D03*
X0141933Y0107054D03*
X0135033Y0107054D03*
X0135033Y0113746D03*
X0141933Y0113746D03*
D14*
X0124413Y0151627D02*
X0124413Y0154373D01*
X0127159Y0154373D01*
X0127159Y0151627D01*
X0124413Y0151627D01*
X0124413Y0153517D02*
X0127159Y0153517D01*
X0117508Y0154373D02*
X0117508Y0151627D01*
X0117508Y0154373D02*
X0120254Y0154373D01*
X0120254Y0151627D01*
X0117508Y0151627D01*
X0117508Y0153517D02*
X0120254Y0153517D01*
D15*
X0133333Y0084840D03*
X0143333Y0084840D03*
X0153333Y0084840D03*
X0163333Y0084840D03*
X0173333Y0084840D03*
X0183333Y0084840D03*
X0193333Y0084840D03*
D16*
X0205333Y0172000D03*
X0121333Y0172000D03*
D17*
X0131233Y0175100D03*
X0208333Y0090000D03*
D18*
X0204333Y0112193D03*
X0204333Y0148807D03*
D19*
X0165359Y0135026D03*
D20*
X0172202Y0136306D02*
X0173580Y0136306D01*
X0173588Y0138865D02*
X0172210Y0138865D01*
X0169202Y0141853D02*
X0169202Y0143231D01*
X0166643Y0143231D02*
X0166643Y0141853D01*
X0164084Y0141853D02*
X0164084Y0143231D01*
X0161517Y0143231D02*
X0161517Y0141853D01*
X0158509Y0138865D02*
X0157131Y0138865D01*
X0157123Y0136306D02*
X0158501Y0136306D01*
X0158509Y0133746D02*
X0157131Y0133746D01*
X0157131Y0131187D02*
X0158509Y0131187D01*
X0161521Y0128180D02*
X0161521Y0126802D01*
X0164080Y0126802D02*
X0164080Y0128180D01*
X0166639Y0128180D02*
X0166639Y0126802D01*
X0169198Y0126802D02*
X0169198Y0128180D01*
X0172210Y0131187D02*
X0173588Y0131187D01*
X0173588Y0133746D02*
X0172210Y0133746D01*
M02*
