%
M48
M72
T01C0.0150
T02C0.0400
T03C0.1200
%
T01
X15313Y9420
X16293Y9570
X15393Y10320
X14243Y10000
X16703Y11390
X17178Y11400
X16933Y11740
X17333Y12200
X16192Y12280
X15013Y12710
X14653Y12640
X13933Y12800
X14643Y13280
X15013Y13300
X14993Y13770
X15233Y14500
X16333Y14900
X17833Y14300
X17833Y13200
X17933Y10900
X13863Y11760
X13383Y11900
X13933Y13600
X13633Y14090
X13033Y15800
X12033Y15900
X17633Y16200
T02
X13333Y8484
X14333Y8484
X15333Y8484
X16333Y8484
X17333Y8484
X18333Y8484
X19333Y8484
T03
X20533Y17200
X12133Y17200
M30
