G75*
%MOIN*%
%OFA0B0*%
%FSLAX25Y25*%
%IPPOS*%
%LPD*%
%AMOC8*
5,1,8,0,0,1.08239X$1,22.5*
%
%ADD10C,0.00800*%
%ADD11C,0.00000*%
D10*
X0113333Y0080000D02*
X0113333Y0180000D01*
X0213333Y0180000D01*
X0213333Y0080000D01*
X0113333Y0080000D01*
D11*
X0115333Y0172000D02*
X0115335Y0172154D01*
X0115341Y0172309D01*
X0115351Y0172463D01*
X0115365Y0172617D01*
X0115383Y0172770D01*
X0115404Y0172923D01*
X0115430Y0173076D01*
X0115460Y0173227D01*
X0115493Y0173378D01*
X0115531Y0173528D01*
X0115572Y0173677D01*
X0115617Y0173825D01*
X0115666Y0173971D01*
X0115719Y0174117D01*
X0115775Y0174260D01*
X0115835Y0174403D01*
X0115899Y0174543D01*
X0115966Y0174683D01*
X0116037Y0174820D01*
X0116111Y0174955D01*
X0116189Y0175089D01*
X0116270Y0175220D01*
X0116355Y0175349D01*
X0116443Y0175477D01*
X0116534Y0175601D01*
X0116628Y0175724D01*
X0116726Y0175844D01*
X0116826Y0175961D01*
X0116930Y0176076D01*
X0117036Y0176188D01*
X0117145Y0176297D01*
X0117257Y0176403D01*
X0117372Y0176507D01*
X0117489Y0176607D01*
X0117609Y0176705D01*
X0117732Y0176799D01*
X0117856Y0176890D01*
X0117984Y0176978D01*
X0118113Y0177063D01*
X0118244Y0177144D01*
X0118378Y0177222D01*
X0118513Y0177296D01*
X0118650Y0177367D01*
X0118790Y0177434D01*
X0118930Y0177498D01*
X0119073Y0177558D01*
X0119216Y0177614D01*
X0119362Y0177667D01*
X0119508Y0177716D01*
X0119656Y0177761D01*
X0119805Y0177802D01*
X0119955Y0177840D01*
X0120106Y0177873D01*
X0120257Y0177903D01*
X0120410Y0177929D01*
X0120563Y0177950D01*
X0120716Y0177968D01*
X0120870Y0177982D01*
X0121024Y0177992D01*
X0121179Y0177998D01*
X0121333Y0178000D01*
X0121487Y0177998D01*
X0121642Y0177992D01*
X0121796Y0177982D01*
X0121950Y0177968D01*
X0122103Y0177950D01*
X0122256Y0177929D01*
X0122409Y0177903D01*
X0122560Y0177873D01*
X0122711Y0177840D01*
X0122861Y0177802D01*
X0123010Y0177761D01*
X0123158Y0177716D01*
X0123304Y0177667D01*
X0123450Y0177614D01*
X0123593Y0177558D01*
X0123736Y0177498D01*
X0123876Y0177434D01*
X0124016Y0177367D01*
X0124153Y0177296D01*
X0124288Y0177222D01*
X0124422Y0177144D01*
X0124553Y0177063D01*
X0124682Y0176978D01*
X0124810Y0176890D01*
X0124934Y0176799D01*
X0125057Y0176705D01*
X0125177Y0176607D01*
X0125294Y0176507D01*
X0125409Y0176403D01*
X0125521Y0176297D01*
X0125630Y0176188D01*
X0125736Y0176076D01*
X0125840Y0175961D01*
X0125940Y0175844D01*
X0126038Y0175724D01*
X0126132Y0175601D01*
X0126223Y0175477D01*
X0126311Y0175349D01*
X0126396Y0175220D01*
X0126477Y0175089D01*
X0126555Y0174955D01*
X0126629Y0174820D01*
X0126700Y0174683D01*
X0126767Y0174543D01*
X0126831Y0174403D01*
X0126891Y0174260D01*
X0126947Y0174117D01*
X0127000Y0173971D01*
X0127049Y0173825D01*
X0127094Y0173677D01*
X0127135Y0173528D01*
X0127173Y0173378D01*
X0127206Y0173227D01*
X0127236Y0173076D01*
X0127262Y0172923D01*
X0127283Y0172770D01*
X0127301Y0172617D01*
X0127315Y0172463D01*
X0127325Y0172309D01*
X0127331Y0172154D01*
X0127333Y0172000D01*
X0127331Y0171846D01*
X0127325Y0171691D01*
X0127315Y0171537D01*
X0127301Y0171383D01*
X0127283Y0171230D01*
X0127262Y0171077D01*
X0127236Y0170924D01*
X0127206Y0170773D01*
X0127173Y0170622D01*
X0127135Y0170472D01*
X0127094Y0170323D01*
X0127049Y0170175D01*
X0127000Y0170029D01*
X0126947Y0169883D01*
X0126891Y0169740D01*
X0126831Y0169597D01*
X0126767Y0169457D01*
X0126700Y0169317D01*
X0126629Y0169180D01*
X0126555Y0169045D01*
X0126477Y0168911D01*
X0126396Y0168780D01*
X0126311Y0168651D01*
X0126223Y0168523D01*
X0126132Y0168399D01*
X0126038Y0168276D01*
X0125940Y0168156D01*
X0125840Y0168039D01*
X0125736Y0167924D01*
X0125630Y0167812D01*
X0125521Y0167703D01*
X0125409Y0167597D01*
X0125294Y0167493D01*
X0125177Y0167393D01*
X0125057Y0167295D01*
X0124934Y0167201D01*
X0124810Y0167110D01*
X0124682Y0167022D01*
X0124553Y0166937D01*
X0124422Y0166856D01*
X0124288Y0166778D01*
X0124153Y0166704D01*
X0124016Y0166633D01*
X0123876Y0166566D01*
X0123736Y0166502D01*
X0123593Y0166442D01*
X0123450Y0166386D01*
X0123304Y0166333D01*
X0123158Y0166284D01*
X0123010Y0166239D01*
X0122861Y0166198D01*
X0122711Y0166160D01*
X0122560Y0166127D01*
X0122409Y0166097D01*
X0122256Y0166071D01*
X0122103Y0166050D01*
X0121950Y0166032D01*
X0121796Y0166018D01*
X0121642Y0166008D01*
X0121487Y0166002D01*
X0121333Y0166000D01*
X0121179Y0166002D01*
X0121024Y0166008D01*
X0120870Y0166018D01*
X0120716Y0166032D01*
X0120563Y0166050D01*
X0120410Y0166071D01*
X0120257Y0166097D01*
X0120106Y0166127D01*
X0119955Y0166160D01*
X0119805Y0166198D01*
X0119656Y0166239D01*
X0119508Y0166284D01*
X0119362Y0166333D01*
X0119216Y0166386D01*
X0119073Y0166442D01*
X0118930Y0166502D01*
X0118790Y0166566D01*
X0118650Y0166633D01*
X0118513Y0166704D01*
X0118378Y0166778D01*
X0118244Y0166856D01*
X0118113Y0166937D01*
X0117984Y0167022D01*
X0117856Y0167110D01*
X0117732Y0167201D01*
X0117609Y0167295D01*
X0117489Y0167393D01*
X0117372Y0167493D01*
X0117257Y0167597D01*
X0117145Y0167703D01*
X0117036Y0167812D01*
X0116930Y0167924D01*
X0116826Y0168039D01*
X0116726Y0168156D01*
X0116628Y0168276D01*
X0116534Y0168399D01*
X0116443Y0168523D01*
X0116355Y0168651D01*
X0116270Y0168780D01*
X0116189Y0168911D01*
X0116111Y0169045D01*
X0116037Y0169180D01*
X0115966Y0169317D01*
X0115899Y0169457D01*
X0115835Y0169597D01*
X0115775Y0169740D01*
X0115719Y0169883D01*
X0115666Y0170029D01*
X0115617Y0170175D01*
X0115572Y0170323D01*
X0115531Y0170472D01*
X0115493Y0170622D01*
X0115460Y0170773D01*
X0115430Y0170924D01*
X0115404Y0171077D01*
X0115383Y0171230D01*
X0115365Y0171383D01*
X0115351Y0171537D01*
X0115341Y0171691D01*
X0115335Y0171846D01*
X0115333Y0172000D01*
X0199333Y0172000D02*
X0199335Y0172154D01*
X0199341Y0172309D01*
X0199351Y0172463D01*
X0199365Y0172617D01*
X0199383Y0172770D01*
X0199404Y0172923D01*
X0199430Y0173076D01*
X0199460Y0173227D01*
X0199493Y0173378D01*
X0199531Y0173528D01*
X0199572Y0173677D01*
X0199617Y0173825D01*
X0199666Y0173971D01*
X0199719Y0174117D01*
X0199775Y0174260D01*
X0199835Y0174403D01*
X0199899Y0174543D01*
X0199966Y0174683D01*
X0200037Y0174820D01*
X0200111Y0174955D01*
X0200189Y0175089D01*
X0200270Y0175220D01*
X0200355Y0175349D01*
X0200443Y0175477D01*
X0200534Y0175601D01*
X0200628Y0175724D01*
X0200726Y0175844D01*
X0200826Y0175961D01*
X0200930Y0176076D01*
X0201036Y0176188D01*
X0201145Y0176297D01*
X0201257Y0176403D01*
X0201372Y0176507D01*
X0201489Y0176607D01*
X0201609Y0176705D01*
X0201732Y0176799D01*
X0201856Y0176890D01*
X0201984Y0176978D01*
X0202113Y0177063D01*
X0202244Y0177144D01*
X0202378Y0177222D01*
X0202513Y0177296D01*
X0202650Y0177367D01*
X0202790Y0177434D01*
X0202930Y0177498D01*
X0203073Y0177558D01*
X0203216Y0177614D01*
X0203362Y0177667D01*
X0203508Y0177716D01*
X0203656Y0177761D01*
X0203805Y0177802D01*
X0203955Y0177840D01*
X0204106Y0177873D01*
X0204257Y0177903D01*
X0204410Y0177929D01*
X0204563Y0177950D01*
X0204716Y0177968D01*
X0204870Y0177982D01*
X0205024Y0177992D01*
X0205179Y0177998D01*
X0205333Y0178000D01*
X0205487Y0177998D01*
X0205642Y0177992D01*
X0205796Y0177982D01*
X0205950Y0177968D01*
X0206103Y0177950D01*
X0206256Y0177929D01*
X0206409Y0177903D01*
X0206560Y0177873D01*
X0206711Y0177840D01*
X0206861Y0177802D01*
X0207010Y0177761D01*
X0207158Y0177716D01*
X0207304Y0177667D01*
X0207450Y0177614D01*
X0207593Y0177558D01*
X0207736Y0177498D01*
X0207876Y0177434D01*
X0208016Y0177367D01*
X0208153Y0177296D01*
X0208288Y0177222D01*
X0208422Y0177144D01*
X0208553Y0177063D01*
X0208682Y0176978D01*
X0208810Y0176890D01*
X0208934Y0176799D01*
X0209057Y0176705D01*
X0209177Y0176607D01*
X0209294Y0176507D01*
X0209409Y0176403D01*
X0209521Y0176297D01*
X0209630Y0176188D01*
X0209736Y0176076D01*
X0209840Y0175961D01*
X0209940Y0175844D01*
X0210038Y0175724D01*
X0210132Y0175601D01*
X0210223Y0175477D01*
X0210311Y0175349D01*
X0210396Y0175220D01*
X0210477Y0175089D01*
X0210555Y0174955D01*
X0210629Y0174820D01*
X0210700Y0174683D01*
X0210767Y0174543D01*
X0210831Y0174403D01*
X0210891Y0174260D01*
X0210947Y0174117D01*
X0211000Y0173971D01*
X0211049Y0173825D01*
X0211094Y0173677D01*
X0211135Y0173528D01*
X0211173Y0173378D01*
X0211206Y0173227D01*
X0211236Y0173076D01*
X0211262Y0172923D01*
X0211283Y0172770D01*
X0211301Y0172617D01*
X0211315Y0172463D01*
X0211325Y0172309D01*
X0211331Y0172154D01*
X0211333Y0172000D01*
X0211331Y0171846D01*
X0211325Y0171691D01*
X0211315Y0171537D01*
X0211301Y0171383D01*
X0211283Y0171230D01*
X0211262Y0171077D01*
X0211236Y0170924D01*
X0211206Y0170773D01*
X0211173Y0170622D01*
X0211135Y0170472D01*
X0211094Y0170323D01*
X0211049Y0170175D01*
X0211000Y0170029D01*
X0210947Y0169883D01*
X0210891Y0169740D01*
X0210831Y0169597D01*
X0210767Y0169457D01*
X0210700Y0169317D01*
X0210629Y0169180D01*
X0210555Y0169045D01*
X0210477Y0168911D01*
X0210396Y0168780D01*
X0210311Y0168651D01*
X0210223Y0168523D01*
X0210132Y0168399D01*
X0210038Y0168276D01*
X0209940Y0168156D01*
X0209840Y0168039D01*
X0209736Y0167924D01*
X0209630Y0167812D01*
X0209521Y0167703D01*
X0209409Y0167597D01*
X0209294Y0167493D01*
X0209177Y0167393D01*
X0209057Y0167295D01*
X0208934Y0167201D01*
X0208810Y0167110D01*
X0208682Y0167022D01*
X0208553Y0166937D01*
X0208422Y0166856D01*
X0208288Y0166778D01*
X0208153Y0166704D01*
X0208016Y0166633D01*
X0207876Y0166566D01*
X0207736Y0166502D01*
X0207593Y0166442D01*
X0207450Y0166386D01*
X0207304Y0166333D01*
X0207158Y0166284D01*
X0207010Y0166239D01*
X0206861Y0166198D01*
X0206711Y0166160D01*
X0206560Y0166127D01*
X0206409Y0166097D01*
X0206256Y0166071D01*
X0206103Y0166050D01*
X0205950Y0166032D01*
X0205796Y0166018D01*
X0205642Y0166008D01*
X0205487Y0166002D01*
X0205333Y0166000D01*
X0205179Y0166002D01*
X0205024Y0166008D01*
X0204870Y0166018D01*
X0204716Y0166032D01*
X0204563Y0166050D01*
X0204410Y0166071D01*
X0204257Y0166097D01*
X0204106Y0166127D01*
X0203955Y0166160D01*
X0203805Y0166198D01*
X0203656Y0166239D01*
X0203508Y0166284D01*
X0203362Y0166333D01*
X0203216Y0166386D01*
X0203073Y0166442D01*
X0202930Y0166502D01*
X0202790Y0166566D01*
X0202650Y0166633D01*
X0202513Y0166704D01*
X0202378Y0166778D01*
X0202244Y0166856D01*
X0202113Y0166937D01*
X0201984Y0167022D01*
X0201856Y0167110D01*
X0201732Y0167201D01*
X0201609Y0167295D01*
X0201489Y0167393D01*
X0201372Y0167493D01*
X0201257Y0167597D01*
X0201145Y0167703D01*
X0201036Y0167812D01*
X0200930Y0167924D01*
X0200826Y0168039D01*
X0200726Y0168156D01*
X0200628Y0168276D01*
X0200534Y0168399D01*
X0200443Y0168523D01*
X0200355Y0168651D01*
X0200270Y0168780D01*
X0200189Y0168911D01*
X0200111Y0169045D01*
X0200037Y0169180D01*
X0199966Y0169317D01*
X0199899Y0169457D01*
X0199835Y0169597D01*
X0199775Y0169740D01*
X0199719Y0169883D01*
X0199666Y0170029D01*
X0199617Y0170175D01*
X0199572Y0170323D01*
X0199531Y0170472D01*
X0199493Y0170622D01*
X0199460Y0170773D01*
X0199430Y0170924D01*
X0199404Y0171077D01*
X0199383Y0171230D01*
X0199365Y0171383D01*
X0199351Y0171537D01*
X0199341Y0171691D01*
X0199335Y0171846D01*
X0199333Y0172000D01*
M02*
