G75*
%MOIN*%
%OFA0B0*%
%FSLAX25Y25*%
%IPPOS*%
%LPD*%
%AMOC8*
5,1,8,0,0,1.08239X$1,22.5*
%
%ADD10R,0.07874X0.04724*%
%ADD11R,0.05315X0.02362*%
%ADD12R,0.04331X0.03937*%
%ADD13R,0.03937X0.04331*%
%ADD14C,0.01181*%
%ADD15R,0.12600X0.05118*%
%ADD16C,0.01024*%
%ADD17R,0.03150X0.03150*%
D10*
X0118865Y0118976D03*
X0118865Y0141024D03*
D11*
X0133333Y0135906D03*
X0133333Y0131969D03*
X0133333Y0128031D03*
X0133333Y0124094D03*
D12*
X0166087Y0109700D03*
X0172780Y0109700D03*
X0126180Y0147500D03*
X0119487Y0147500D03*
X0169987Y0150500D03*
X0176680Y0150500D03*
X0176680Y0157000D03*
X0169987Y0157000D03*
D13*
X0135033Y0107054D03*
X0141933Y0107054D03*
X0141933Y0113746D03*
X0135033Y0113746D03*
X0152933Y0114246D03*
X0152933Y0107554D03*
X0178833Y0116654D03*
X0178833Y0123346D03*
X0186733Y0130654D03*
X0192733Y0130654D03*
X0192733Y0137346D03*
X0186733Y0137346D03*
D14*
X0124408Y0151622D02*
X0124408Y0154378D01*
X0127164Y0154378D01*
X0127164Y0151622D01*
X0124408Y0151622D01*
X0124408Y0152744D02*
X0127164Y0152744D01*
X0127164Y0153866D02*
X0124408Y0153866D01*
X0117503Y0154378D02*
X0117503Y0151622D01*
X0117503Y0154378D02*
X0120259Y0154378D01*
X0120259Y0151622D01*
X0117503Y0151622D01*
X0117503Y0152744D02*
X0120259Y0152744D01*
X0120259Y0153866D02*
X0117503Y0153866D01*
D15*
X0204333Y0148807D03*
X0204333Y0112193D03*
D16*
X0173592Y0131187D02*
X0172214Y0131187D01*
X0172214Y0133746D02*
X0173592Y0133746D01*
X0173592Y0136306D02*
X0172214Y0136306D01*
X0172214Y0138865D02*
X0173592Y0138865D01*
X0169198Y0141853D02*
X0169198Y0143231D01*
X0166639Y0143231D02*
X0166639Y0141853D01*
X0164080Y0141853D02*
X0164080Y0143231D01*
X0161521Y0143231D02*
X0161521Y0141853D01*
X0158533Y0138865D02*
X0157155Y0138865D01*
X0157155Y0136306D02*
X0158533Y0136306D01*
X0158533Y0133746D02*
X0157155Y0133746D01*
X0157155Y0131187D02*
X0158533Y0131187D01*
X0161521Y0128172D02*
X0161521Y0126794D01*
X0164080Y0126794D02*
X0164080Y0128172D01*
X0166639Y0128172D02*
X0166639Y0126794D01*
X0169198Y0126794D02*
X0169198Y0128172D01*
D17*
X0167302Y0133031D03*
X0163365Y0133031D03*
X0163365Y0136969D03*
X0167302Y0136969D03*
M02*
