G75*
%MOIN*%
%OFA0B0*%
%FSLAX25Y25*%
%IPPOS*%
%LPD*%
%AMOC8*
5,1,8,0,0,1.08239X$1,22.5*
%
%ADD10C,0.00500*%
%ADD11R,0.02500X0.05000*%
%ADD12R,0.05000X0.02500*%
%ADD13C,0.07400*%
%ADD14R,0.01600X0.01000*%
%ADD15C,0.03937*%
%ADD16C,0.01000*%
%ADD17C,0.02900*%
D10*
X0204203Y0082550D02*
X0205592Y0082550D01*
X0204898Y0082550D02*
X0204898Y0085050D01*
X0205592Y0084494D01*
X0207598Y0085050D02*
X0207598Y0082550D01*
X0208292Y0082550D02*
X0206903Y0082550D01*
X0208292Y0084494D02*
X0207598Y0085050D01*
X0209472Y0084217D02*
X0210028Y0082550D01*
X0210583Y0084217D01*
D11*
X0161833Y0108000D03*
X0157833Y0108000D03*
X0153833Y0108000D03*
X0142333Y0108100D03*
X0139133Y0108100D03*
X0132033Y0108100D03*
X0128833Y0108100D03*
X0124333Y0154000D03*
X0120333Y0154000D03*
D12*
X0162833Y0154900D03*
X0162833Y0158100D03*
D13*
X0163333Y0084840D03*
X0153333Y0084840D03*
X0143333Y0084840D03*
X0133333Y0084840D03*
X0173333Y0084840D03*
X0183333Y0084840D03*
X0193333Y0084840D03*
D14*
X0155833Y0108000D03*
X0122333Y0154000D03*
D15*
X0131223Y0175100D03*
X0208333Y0090000D03*
D16*
X0115433Y0082100D02*
X0115433Y0164680D01*
X0116561Y0163734D01*
X0119676Y0162600D01*
X0120463Y0162600D01*
X0122991Y0162600D01*
X0126106Y0163734D01*
X0128645Y0165865D01*
X0130303Y0168735D01*
X0130303Y0168735D01*
X0130778Y0171431D01*
X0131953Y0171431D01*
X0133301Y0171990D01*
X0134333Y0173022D01*
X0134892Y0174370D01*
X0134892Y0175830D01*
X0134333Y0177178D01*
X0133611Y0177900D01*
X0183333Y0177900D01*
X0183333Y0097000D01*
X0189333Y0097000D01*
X0190333Y0096000D01*
X0199333Y0088200D01*
X0199333Y0082100D01*
X0198043Y0082100D01*
X0198733Y0083766D01*
X0198733Y0085914D01*
X0197911Y0087899D01*
X0196392Y0089418D01*
X0194407Y0090240D01*
X0192259Y0090240D01*
X0190274Y0089418D01*
X0188755Y0087899D01*
X0188333Y0086880D01*
X0187911Y0087899D01*
X0186392Y0089418D01*
X0184407Y0090240D01*
X0182259Y0090240D01*
X0180274Y0089418D01*
X0178755Y0087899D01*
X0178333Y0086880D01*
X0177911Y0087899D01*
X0176392Y0089418D01*
X0174407Y0090240D01*
X0172259Y0090240D01*
X0170274Y0089418D01*
X0168755Y0087899D01*
X0168333Y0086880D01*
X0167911Y0087899D01*
X0166392Y0089418D01*
X0164407Y0090240D01*
X0162259Y0090240D01*
X0160274Y0089418D01*
X0158755Y0087899D01*
X0158333Y0086880D01*
X0157911Y0087899D01*
X0156392Y0089418D01*
X0155533Y0089774D01*
X0155533Y0092145D01*
X0155804Y0092416D01*
X0156283Y0093573D01*
X0156283Y0094827D01*
X0155804Y0095984D01*
X0154918Y0096870D01*
X0153760Y0097350D01*
X0152507Y0097350D01*
X0151349Y0096870D01*
X0150463Y0095984D01*
X0149983Y0094827D01*
X0149983Y0093573D01*
X0150463Y0092416D01*
X0151133Y0091745D01*
X0151133Y0089774D01*
X0150274Y0089418D01*
X0148755Y0087899D01*
X0148333Y0086880D01*
X0147911Y0087899D01*
X0146392Y0089418D01*
X0144407Y0090240D01*
X0142259Y0090240D01*
X0140274Y0089418D01*
X0138755Y0087899D01*
X0138224Y0086616D01*
X0138152Y0086836D01*
X0137781Y0087565D01*
X0137300Y0088228D01*
X0136721Y0088806D01*
X0136059Y0089287D01*
X0135329Y0089659D01*
X0134551Y0089912D01*
X0133833Y0090026D01*
X0133833Y0085340D01*
X0132833Y0085340D01*
X0132833Y0084340D01*
X0128148Y0084340D01*
X0128261Y0083622D01*
X0128514Y0082844D01*
X0128886Y0082115D01*
X0128897Y0082100D01*
X0115433Y0082100D01*
X0115433Y0082996D02*
X0128465Y0082996D01*
X0128202Y0083994D02*
X0115433Y0083994D01*
X0115433Y0084993D02*
X0132833Y0084993D01*
X0132833Y0085340D02*
X0128148Y0085340D01*
X0128261Y0086058D01*
X0128514Y0086836D01*
X0128886Y0087565D01*
X0129367Y0088228D01*
X0129946Y0088806D01*
X0130608Y0089287D01*
X0131337Y0089659D01*
X0132116Y0089912D01*
X0132833Y0090026D01*
X0132833Y0085340D01*
X0132833Y0085991D02*
X0133833Y0085991D01*
X0133833Y0086990D02*
X0132833Y0086990D01*
X0132833Y0087988D02*
X0133833Y0087988D01*
X0133833Y0088987D02*
X0132833Y0088987D01*
X0132833Y0089985D02*
X0133833Y0089985D01*
X0134089Y0089985D02*
X0141644Y0089985D01*
X0139843Y0088987D02*
X0136473Y0088987D01*
X0137474Y0087988D02*
X0138845Y0087988D01*
X0138379Y0086990D02*
X0138074Y0086990D01*
X0132578Y0089985D02*
X0115433Y0089985D01*
X0115433Y0088987D02*
X0130194Y0088987D01*
X0129193Y0087988D02*
X0115433Y0087988D01*
X0115433Y0086990D02*
X0128593Y0086990D01*
X0128251Y0085991D02*
X0115433Y0085991D01*
X0115433Y0090984D02*
X0151133Y0090984D01*
X0151133Y0089985D02*
X0145023Y0089985D01*
X0146823Y0088987D02*
X0149843Y0088987D01*
X0148845Y0087988D02*
X0147822Y0087988D01*
X0148288Y0086990D02*
X0148379Y0086990D01*
X0153333Y0084840D02*
X0153333Y0094200D01*
X0153133Y0094200D01*
X0150229Y0092981D02*
X0115433Y0092981D01*
X0115433Y0093979D02*
X0149983Y0093979D01*
X0150046Y0094978D02*
X0115433Y0094978D01*
X0115433Y0095976D02*
X0150460Y0095976D01*
X0151601Y0096975D02*
X0143361Y0096975D01*
X0143060Y0096850D02*
X0144218Y0097330D01*
X0144688Y0097800D01*
X0145245Y0097800D01*
X0149245Y0101800D01*
X0150533Y0103089D01*
X0150533Y0109089D01*
X0150883Y0109439D01*
X0150883Y0104796D01*
X0151097Y0104583D01*
X0150783Y0103827D01*
X0150783Y0102573D01*
X0151263Y0101416D01*
X0152149Y0100530D01*
X0153307Y0100050D01*
X0154560Y0100050D01*
X0155718Y0100530D01*
X0156604Y0101416D01*
X0157083Y0102573D01*
X0157083Y0103800D01*
X0159787Y0103800D01*
X0159833Y0103846D01*
X0159879Y0103800D01*
X0163787Y0103800D01*
X0164783Y0104796D01*
X0164783Y0105800D01*
X0169691Y0105800D01*
X0170980Y0107089D01*
X0173980Y0110089D01*
X0173980Y0111745D01*
X0174450Y0112216D01*
X0174930Y0113373D01*
X0174930Y0114627D01*
X0174450Y0115784D01*
X0173564Y0116670D01*
X0172483Y0117118D01*
X0172483Y0118027D01*
X0172004Y0119184D01*
X0171118Y0120070D01*
X0169960Y0120550D01*
X0168707Y0120550D01*
X0167549Y0120070D01*
X0167079Y0119600D01*
X0165422Y0119600D01*
X0164122Y0118300D01*
X0146295Y0118300D01*
X0142095Y0122500D01*
X0134222Y0122500D01*
X0133872Y0122150D01*
X0133207Y0122150D01*
X0132049Y0121670D01*
X0131163Y0120784D01*
X0130683Y0119627D01*
X0130683Y0118961D01*
X0127922Y0116200D01*
X0126633Y0114911D01*
X0126633Y0112054D01*
X0125883Y0111304D01*
X0125883Y0104896D01*
X0126879Y0103900D01*
X0130787Y0103900D01*
X0130987Y0104100D01*
X0131908Y0104100D01*
X0131908Y0107975D01*
X0132158Y0107975D01*
X0132158Y0104100D01*
X0133481Y0104100D01*
X0133862Y0104202D01*
X0134204Y0104400D01*
X0134484Y0104679D01*
X0134681Y0105021D01*
X0134783Y0105403D01*
X0134783Y0107975D01*
X0132158Y0107975D01*
X0132158Y0108225D01*
X0131908Y0108225D01*
X0131908Y0112100D01*
X0131033Y0112100D01*
X0131033Y0113089D01*
X0133795Y0115850D01*
X0134460Y0115850D01*
X0135618Y0116330D01*
X0135711Y0116423D01*
X0135963Y0115816D01*
X0136849Y0114930D01*
X0138007Y0114450D01*
X0139260Y0114450D01*
X0140133Y0114812D01*
X0140133Y0112100D01*
X0139258Y0112100D01*
X0139258Y0108225D01*
X0139008Y0108225D01*
X0139008Y0107975D01*
X0136383Y0107975D01*
X0136383Y0105403D01*
X0136486Y0105021D01*
X0136683Y0104679D01*
X0136962Y0104400D01*
X0137304Y0104202D01*
X0137686Y0104100D01*
X0139008Y0104100D01*
X0139008Y0107975D01*
X0139258Y0107975D01*
X0139258Y0104100D01*
X0140179Y0104100D01*
X0140379Y0103900D01*
X0144287Y0103900D01*
X0145283Y0104896D01*
X0145283Y0111304D01*
X0144533Y0112054D01*
X0144533Y0112200D01*
X0147422Y0112200D01*
X0146133Y0110911D01*
X0146133Y0104911D01*
X0143988Y0102766D01*
X0143060Y0103150D01*
X0141807Y0103150D01*
X0140649Y0102670D01*
X0139763Y0101784D01*
X0139283Y0100627D01*
X0139283Y0099373D01*
X0139763Y0098216D01*
X0140649Y0097330D01*
X0141807Y0096850D01*
X0143060Y0096850D01*
X0141506Y0096975D02*
X0115433Y0096975D01*
X0115433Y0097973D02*
X0140005Y0097973D01*
X0139450Y0098972D02*
X0115433Y0098972D01*
X0115433Y0099970D02*
X0139283Y0099970D01*
X0139425Y0100969D02*
X0115433Y0100969D01*
X0115433Y0101967D02*
X0139946Y0101967D01*
X0141362Y0102966D02*
X0115433Y0102966D01*
X0115433Y0103964D02*
X0126815Y0103964D01*
X0125883Y0104963D02*
X0115433Y0104963D01*
X0115433Y0105961D02*
X0125883Y0105961D01*
X0125883Y0106960D02*
X0115433Y0106960D01*
X0115433Y0107958D02*
X0125883Y0107958D01*
X0125883Y0108957D02*
X0115433Y0108957D01*
X0115433Y0109955D02*
X0125883Y0109955D01*
X0125883Y0110954D02*
X0115433Y0110954D01*
X0115433Y0111952D02*
X0126532Y0111952D01*
X0126633Y0112951D02*
X0115433Y0112951D01*
X0115433Y0113949D02*
X0126633Y0113949D01*
X0126670Y0114948D02*
X0115433Y0114948D01*
X0115433Y0115946D02*
X0127668Y0115946D01*
X0128667Y0116945D02*
X0115433Y0116945D01*
X0115433Y0117943D02*
X0129665Y0117943D01*
X0130664Y0118942D02*
X0115433Y0118942D01*
X0115433Y0119940D02*
X0130813Y0119940D01*
X0131318Y0120939D02*
X0115433Y0120939D01*
X0115433Y0121937D02*
X0132694Y0121937D01*
X0135133Y0120300D02*
X0133833Y0119000D01*
X0128833Y0114000D01*
X0128833Y0108100D01*
X0131908Y0107958D02*
X0132158Y0107958D01*
X0132158Y0108225D02*
X0134783Y0108225D01*
X0134783Y0110797D01*
X0134681Y0111179D01*
X0134484Y0111521D01*
X0134204Y0111800D01*
X0133862Y0111998D01*
X0133481Y0112100D01*
X0132158Y0112100D01*
X0132158Y0108225D01*
X0132158Y0108957D02*
X0131908Y0108957D01*
X0131908Y0109955D02*
X0132158Y0109955D01*
X0132158Y0110954D02*
X0131908Y0110954D01*
X0131908Y0111952D02*
X0132158Y0111952D01*
X0131033Y0112951D02*
X0140133Y0112951D01*
X0140133Y0113949D02*
X0131894Y0113949D01*
X0132892Y0114948D02*
X0136831Y0114948D01*
X0135909Y0115946D02*
X0134693Y0115946D01*
X0138633Y0117600D02*
X0141433Y0117600D01*
X0143183Y0115850D01*
X0142333Y0115000D01*
X0142333Y0108100D01*
X0145283Y0107958D02*
X0146133Y0107958D01*
X0146133Y0106960D02*
X0145283Y0106960D01*
X0145283Y0105961D02*
X0146133Y0105961D01*
X0146133Y0104963D02*
X0145283Y0104963D01*
X0145186Y0103964D02*
X0144352Y0103964D01*
X0144188Y0102966D02*
X0143505Y0102966D01*
X0144333Y0100000D02*
X0148333Y0104000D01*
X0148333Y0110000D01*
X0150833Y0112500D01*
X0155833Y0112500D01*
X0157833Y0110500D01*
X0157833Y0108000D01*
X0153933Y0107900D02*
X0153933Y0103200D01*
X0151710Y0100969D02*
X0148413Y0100969D01*
X0149245Y0101800D02*
X0149245Y0101800D01*
X0149412Y0101967D02*
X0151034Y0101967D01*
X0150783Y0102966D02*
X0150410Y0102966D01*
X0150533Y0103964D02*
X0150840Y0103964D01*
X0150883Y0104963D02*
X0150533Y0104963D01*
X0150533Y0105961D02*
X0150883Y0105961D01*
X0150883Y0106960D02*
X0150533Y0106960D01*
X0150533Y0107958D02*
X0150883Y0107958D01*
X0150883Y0108957D02*
X0150533Y0108957D01*
X0153833Y0108000D02*
X0153933Y0107900D01*
X0157083Y0102966D02*
X0183333Y0102966D01*
X0183333Y0103964D02*
X0163952Y0103964D01*
X0164783Y0104963D02*
X0183333Y0104963D01*
X0183333Y0105961D02*
X0169852Y0105961D01*
X0170851Y0106960D02*
X0183333Y0106960D01*
X0183333Y0107958D02*
X0171849Y0107958D01*
X0172848Y0108957D02*
X0183333Y0108957D01*
X0183333Y0109955D02*
X0173846Y0109955D01*
X0173980Y0110954D02*
X0183333Y0110954D01*
X0183333Y0111952D02*
X0174187Y0111952D01*
X0174755Y0112951D02*
X0183333Y0112951D01*
X0183333Y0113949D02*
X0174930Y0113949D01*
X0174797Y0114948D02*
X0183333Y0114948D01*
X0183333Y0115946D02*
X0174288Y0115946D01*
X0172901Y0116945D02*
X0183333Y0116945D01*
X0183333Y0117943D02*
X0172483Y0117943D01*
X0172104Y0118942D02*
X0183333Y0118942D01*
X0183333Y0119940D02*
X0171248Y0119940D01*
X0169333Y0117400D02*
X0166333Y0117400D01*
X0165033Y0116100D01*
X0145383Y0116100D01*
X0141183Y0120300D01*
X0135133Y0120300D01*
X0142088Y0123934D02*
X0115433Y0123934D01*
X0115433Y0122936D02*
X0143086Y0122936D01*
X0143233Y0122789D02*
X0143233Y0122789D01*
X0140817Y0125205D01*
X0139960Y0124850D01*
X0138707Y0124850D01*
X0137549Y0125330D01*
X0136663Y0126216D01*
X0136183Y0127373D01*
X0136183Y0128627D01*
X0136663Y0129784D01*
X0137549Y0130670D01*
X0138707Y0131150D01*
X0139960Y0131150D01*
X0141118Y0130670D01*
X0141588Y0130200D01*
X0142045Y0130200D01*
X0143333Y0128911D01*
X0143962Y0128283D01*
X0144233Y0128555D01*
X0144233Y0130545D01*
X0143763Y0131016D01*
X0143283Y0132173D01*
X0143283Y0133427D01*
X0143763Y0134584D01*
X0144649Y0135470D01*
X0145807Y0135950D01*
X0147060Y0135950D01*
X0148169Y0135491D01*
X0148349Y0135670D01*
X0149507Y0136150D01*
X0150760Y0136150D01*
X0151918Y0135670D01*
X0152804Y0134784D01*
X0153283Y0133627D01*
X0153283Y0132373D01*
X0152804Y0131216D01*
X0152333Y0130745D01*
X0152333Y0129355D01*
X0152804Y0128884D01*
X0153283Y0127727D01*
X0153283Y0126473D01*
X0153046Y0125900D01*
X0161173Y0125900D01*
X0161294Y0125950D01*
X0162547Y0125950D01*
X0163705Y0125470D01*
X0164591Y0124584D01*
X0165071Y0123427D01*
X0165071Y0122173D01*
X0164591Y0121016D01*
X0163705Y0120130D01*
X0162547Y0119650D01*
X0161294Y0119650D01*
X0160136Y0120130D01*
X0159250Y0121016D01*
X0159050Y0121500D01*
X0144522Y0121500D01*
X0143233Y0122789D01*
X0142657Y0121937D02*
X0144085Y0121937D01*
X0143656Y0120939D02*
X0159327Y0120939D01*
X0160593Y0119940D02*
X0144654Y0119940D01*
X0145653Y0118942D02*
X0164764Y0118942D01*
X0163249Y0119940D02*
X0167419Y0119940D01*
X0164514Y0120939D02*
X0183333Y0120939D01*
X0183333Y0121937D02*
X0164973Y0121937D01*
X0165071Y0122936D02*
X0183333Y0122936D01*
X0183333Y0123934D02*
X0164860Y0123934D01*
X0164242Y0124933D02*
X0183333Y0124933D01*
X0183333Y0125932D02*
X0162592Y0125932D01*
X0161250Y0125932D02*
X0153059Y0125932D01*
X0153283Y0126930D02*
X0183333Y0126930D01*
X0183333Y0127929D02*
X0153200Y0127929D01*
X0152761Y0128927D02*
X0183333Y0128927D01*
X0183333Y0129926D02*
X0152333Y0129926D01*
X0152512Y0130924D02*
X0183333Y0130924D01*
X0183333Y0131923D02*
X0153097Y0131923D01*
X0153283Y0132921D02*
X0183333Y0132921D01*
X0183333Y0133920D02*
X0153162Y0133920D01*
X0152670Y0134918D02*
X0183333Y0134918D01*
X0183333Y0135917D02*
X0151323Y0135917D01*
X0148943Y0135917D02*
X0147140Y0135917D01*
X0145726Y0135917D02*
X0115433Y0135917D01*
X0115433Y0136915D02*
X0183333Y0136915D01*
X0183333Y0137914D02*
X0115433Y0137914D01*
X0115433Y0138912D02*
X0183333Y0138912D01*
X0183333Y0139911D02*
X0115433Y0139911D01*
X0115433Y0140909D02*
X0183333Y0140909D01*
X0183333Y0141908D02*
X0153099Y0141908D01*
X0152960Y0141850D02*
X0154118Y0142330D01*
X0155004Y0143216D01*
X0155483Y0144373D01*
X0155483Y0145627D01*
X0155004Y0146784D01*
X0154533Y0147255D01*
X0154533Y0150089D01*
X0157145Y0152700D01*
X0158879Y0152700D01*
X0159629Y0151950D01*
X0166037Y0151950D01*
X0166787Y0152700D01*
X0174145Y0152700D01*
X0177245Y0155800D01*
X0178533Y0157089D01*
X0178533Y0159745D01*
X0179004Y0160216D01*
X0179483Y0161373D01*
X0179483Y0162627D01*
X0179004Y0163784D01*
X0178118Y0164670D01*
X0176960Y0165150D01*
X0175707Y0165150D01*
X0174549Y0164670D01*
X0173663Y0163784D01*
X0173183Y0162627D01*
X0173183Y0161373D01*
X0173663Y0160216D01*
X0174133Y0159745D01*
X0174133Y0158911D01*
X0172322Y0157100D01*
X0166833Y0157100D01*
X0166833Y0157975D01*
X0162958Y0157975D01*
X0162958Y0158225D01*
X0162708Y0158225D01*
X0162708Y0157975D01*
X0158833Y0157975D01*
X0158833Y0157100D01*
X0155322Y0157100D01*
X0154033Y0155811D01*
X0151422Y0153200D01*
X0150133Y0151911D01*
X0150133Y0147255D01*
X0149663Y0146784D01*
X0149183Y0145627D01*
X0149183Y0144373D01*
X0149663Y0143216D01*
X0150549Y0142330D01*
X0151707Y0141850D01*
X0152960Y0141850D01*
X0151567Y0141908D02*
X0115433Y0141908D01*
X0115433Y0142906D02*
X0149972Y0142906D01*
X0149377Y0143905D02*
X0115433Y0143905D01*
X0115433Y0144903D02*
X0149183Y0144903D01*
X0149297Y0145902D02*
X0115433Y0145902D01*
X0115433Y0146900D02*
X0149779Y0146900D01*
X0150133Y0147899D02*
X0115433Y0147899D01*
X0115433Y0148897D02*
X0150133Y0148897D01*
X0150133Y0149896D02*
X0122383Y0149896D01*
X0122287Y0149800D02*
X0122572Y0150084D01*
X0122886Y0150000D01*
X0124208Y0150000D01*
X0124208Y0152171D01*
X0124458Y0152421D01*
X0124458Y0150000D01*
X0125781Y0150000D01*
X0126162Y0150102D01*
X0126504Y0150300D01*
X0126784Y0150579D01*
X0126981Y0150921D01*
X0127083Y0151303D01*
X0127083Y0153875D01*
X0124833Y0153875D01*
X0124833Y0154125D01*
X0127083Y0154125D01*
X0127083Y0156697D01*
X0126981Y0157079D01*
X0126784Y0157421D01*
X0126504Y0157700D01*
X0126162Y0157898D01*
X0125781Y0158000D01*
X0124458Y0158000D01*
X0124458Y0155579D01*
X0124208Y0155829D01*
X0124208Y0158000D01*
X0123329Y0158000D01*
X0123483Y0158373D01*
X0123483Y0159627D01*
X0123004Y0160784D01*
X0122118Y0161670D01*
X0120960Y0162150D01*
X0119707Y0162150D01*
X0118549Y0161670D01*
X0117663Y0160784D01*
X0117183Y0159627D01*
X0117183Y0158373D01*
X0117584Y0157405D01*
X0117383Y0157204D01*
X0117383Y0150796D01*
X0118379Y0149800D01*
X0122287Y0149800D01*
X0124208Y0150894D02*
X0124458Y0150894D01*
X0124458Y0151893D02*
X0124208Y0151893D01*
X0124833Y0153890D02*
X0152112Y0153890D01*
X0153110Y0154888D02*
X0127083Y0154888D01*
X0127083Y0155887D02*
X0154109Y0155887D01*
X0155107Y0156885D02*
X0127033Y0156885D01*
X0126186Y0157884D02*
X0158833Y0157884D01*
X0158833Y0158225D02*
X0162708Y0158225D01*
X0162708Y0160850D01*
X0160136Y0160850D01*
X0159754Y0160748D01*
X0159412Y0160550D01*
X0159133Y0160271D01*
X0158936Y0159929D01*
X0158833Y0159547D01*
X0158833Y0158225D01*
X0158833Y0158882D02*
X0123483Y0158882D01*
X0123378Y0159881D02*
X0158923Y0159881D01*
X0162708Y0159881D02*
X0162958Y0159881D01*
X0162958Y0160850D02*
X0162958Y0158225D01*
X0166833Y0158225D01*
X0166833Y0159547D01*
X0166731Y0159929D01*
X0166534Y0160271D01*
X0166254Y0160550D01*
X0165912Y0160748D01*
X0165531Y0160850D01*
X0162958Y0160850D01*
X0162958Y0158882D02*
X0162708Y0158882D01*
X0166833Y0158882D02*
X0174104Y0158882D01*
X0173998Y0159881D02*
X0166744Y0159881D01*
X0166833Y0157884D02*
X0173106Y0157884D01*
X0173233Y0154900D02*
X0176333Y0158000D01*
X0176333Y0162000D01*
X0173388Y0160879D02*
X0122909Y0160879D01*
X0121617Y0161878D02*
X0173183Y0161878D01*
X0173287Y0162876D02*
X0123750Y0162876D01*
X0126274Y0163875D02*
X0173754Y0163875D01*
X0175039Y0164873D02*
X0127464Y0164873D01*
X0128645Y0165865D02*
X0128645Y0165865D01*
X0128645Y0165865D01*
X0128649Y0165872D02*
X0183333Y0165872D01*
X0183333Y0166870D02*
X0129226Y0166870D01*
X0129802Y0167869D02*
X0183333Y0167869D01*
X0183333Y0168868D02*
X0130326Y0168868D01*
X0130502Y0169866D02*
X0183333Y0169866D01*
X0183333Y0170865D02*
X0130678Y0170865D01*
X0132995Y0171863D02*
X0183333Y0171863D01*
X0183333Y0172862D02*
X0134173Y0172862D01*
X0134680Y0173860D02*
X0183333Y0173860D01*
X0183333Y0174859D02*
X0134892Y0174859D01*
X0134880Y0175857D02*
X0183333Y0175857D01*
X0183333Y0176856D02*
X0134467Y0176856D01*
X0133657Y0177854D02*
X0183333Y0177854D01*
X0183333Y0164873D02*
X0177628Y0164873D01*
X0178913Y0163875D02*
X0183333Y0163875D01*
X0183333Y0162876D02*
X0179380Y0162876D01*
X0179483Y0161878D02*
X0183333Y0161878D01*
X0183333Y0160879D02*
X0179279Y0160879D01*
X0178669Y0159881D02*
X0183333Y0159881D01*
X0183333Y0158882D02*
X0178533Y0158882D01*
X0178533Y0157884D02*
X0183333Y0157884D01*
X0183333Y0156885D02*
X0178330Y0156885D01*
X0177331Y0155887D02*
X0183333Y0155887D01*
X0183333Y0154888D02*
X0176333Y0154888D01*
X0175334Y0153890D02*
X0183333Y0153890D01*
X0183333Y0152891D02*
X0174336Y0152891D01*
X0173233Y0154900D02*
X0162833Y0154900D01*
X0156233Y0154900D01*
X0152333Y0151000D01*
X0152333Y0145000D01*
X0155483Y0144903D02*
X0183333Y0144903D01*
X0183333Y0143905D02*
X0155289Y0143905D01*
X0154694Y0142906D02*
X0183333Y0142906D01*
X0183333Y0145902D02*
X0155369Y0145902D01*
X0154888Y0146900D02*
X0183333Y0146900D01*
X0183333Y0147899D02*
X0154533Y0147899D01*
X0154533Y0148897D02*
X0183333Y0148897D01*
X0183333Y0149896D02*
X0154533Y0149896D01*
X0155339Y0150894D02*
X0183333Y0150894D01*
X0183333Y0151893D02*
X0156337Y0151893D01*
X0151113Y0152891D02*
X0127083Y0152891D01*
X0127083Y0151893D02*
X0150133Y0151893D01*
X0150133Y0150894D02*
X0126966Y0150894D01*
X0120333Y0154000D02*
X0120333Y0159000D01*
X0117386Y0157884D02*
X0115433Y0157884D01*
X0115433Y0158882D02*
X0117183Y0158882D01*
X0117289Y0159881D02*
X0115433Y0159881D01*
X0115433Y0160879D02*
X0117758Y0160879D01*
X0119050Y0161878D02*
X0115433Y0161878D01*
X0115433Y0162876D02*
X0118916Y0162876D01*
X0116561Y0163734D02*
X0116561Y0163734D01*
X0116393Y0163875D02*
X0115433Y0163875D01*
X0124208Y0157884D02*
X0124458Y0157884D01*
X0124458Y0156885D02*
X0124208Y0156885D01*
X0124208Y0155887D02*
X0124458Y0155887D01*
X0117383Y0155887D02*
X0115433Y0155887D01*
X0115433Y0156885D02*
X0117383Y0156885D01*
X0117383Y0154888D02*
X0115433Y0154888D01*
X0115433Y0153890D02*
X0117383Y0153890D01*
X0117383Y0152891D02*
X0115433Y0152891D01*
X0115433Y0151893D02*
X0117383Y0151893D01*
X0117383Y0150894D02*
X0115433Y0150894D01*
X0115433Y0149896D02*
X0118283Y0149896D01*
X0115433Y0134918D02*
X0144097Y0134918D01*
X0143488Y0133920D02*
X0115433Y0133920D01*
X0115433Y0132921D02*
X0143283Y0132921D01*
X0143387Y0131923D02*
X0115433Y0131923D01*
X0115433Y0130924D02*
X0138161Y0130924D01*
X0136804Y0129926D02*
X0115433Y0129926D01*
X0115433Y0128927D02*
X0136308Y0128927D01*
X0136183Y0127929D02*
X0115433Y0127929D01*
X0115433Y0126930D02*
X0136367Y0126930D01*
X0136947Y0125932D02*
X0115433Y0125932D01*
X0115433Y0124933D02*
X0138506Y0124933D01*
X0140160Y0124933D02*
X0141089Y0124933D01*
X0141133Y0128000D02*
X0139333Y0128000D01*
X0141133Y0128000D02*
X0145433Y0123700D01*
X0161021Y0123700D01*
X0161921Y0122800D01*
X0150133Y0127100D02*
X0150133Y0133000D01*
X0146433Y0132800D02*
X0146433Y0126500D01*
X0146533Y0126400D01*
X0144233Y0128927D02*
X0143318Y0128927D01*
X0144233Y0129926D02*
X0142319Y0129926D01*
X0143854Y0130924D02*
X0140505Y0130924D01*
X0143183Y0115850D02*
X0144633Y0114400D01*
X0166533Y0114400D01*
X0167033Y0113900D01*
X0171780Y0114000D02*
X0171780Y0111000D01*
X0168780Y0108000D01*
X0161833Y0108000D01*
X0156832Y0101967D02*
X0183333Y0101967D01*
X0183333Y0100969D02*
X0156157Y0100969D01*
X0154666Y0096975D02*
X0189359Y0096975D01*
X0190361Y0095976D02*
X0155807Y0095976D01*
X0156221Y0094978D02*
X0191513Y0094978D01*
X0192665Y0093979D02*
X0156283Y0093979D01*
X0156038Y0092981D02*
X0193817Y0092981D01*
X0194969Y0091982D02*
X0155533Y0091982D01*
X0155533Y0090984D02*
X0196121Y0090984D01*
X0195023Y0089985D02*
X0197274Y0089985D01*
X0196823Y0088987D02*
X0198426Y0088987D01*
X0197822Y0087988D02*
X0199333Y0087988D01*
X0199333Y0086990D02*
X0198288Y0086990D01*
X0198701Y0085991D02*
X0199333Y0085991D01*
X0199333Y0084993D02*
X0198733Y0084993D01*
X0198733Y0083994D02*
X0199333Y0083994D01*
X0199333Y0082996D02*
X0198414Y0082996D01*
X0189843Y0088987D02*
X0186823Y0088987D01*
X0187822Y0087988D02*
X0188845Y0087988D01*
X0188379Y0086990D02*
X0188288Y0086990D01*
X0185023Y0089985D02*
X0191644Y0089985D01*
X0181644Y0089985D02*
X0175023Y0089985D01*
X0176823Y0088987D02*
X0179843Y0088987D01*
X0178845Y0087988D02*
X0177822Y0087988D01*
X0178288Y0086990D02*
X0178379Y0086990D01*
X0171644Y0089985D02*
X0165023Y0089985D01*
X0166823Y0088987D02*
X0169843Y0088987D01*
X0168845Y0087988D02*
X0167822Y0087988D01*
X0168288Y0086990D02*
X0168379Y0086990D01*
X0161644Y0089985D02*
X0155533Y0089985D01*
X0156823Y0088987D02*
X0159843Y0088987D01*
X0158845Y0087988D02*
X0157822Y0087988D01*
X0158288Y0086990D02*
X0158379Y0086990D01*
X0150896Y0091982D02*
X0115433Y0091982D01*
X0130852Y0103964D02*
X0140315Y0103964D01*
X0139258Y0104963D02*
X0139008Y0104963D01*
X0139008Y0105961D02*
X0139258Y0105961D01*
X0139258Y0106960D02*
X0139008Y0106960D01*
X0139008Y0107958D02*
X0139258Y0107958D01*
X0139008Y0108225D02*
X0136383Y0108225D01*
X0136383Y0110797D01*
X0136486Y0111179D01*
X0136683Y0111521D01*
X0136962Y0111800D01*
X0137304Y0111998D01*
X0137686Y0112100D01*
X0139008Y0112100D01*
X0139008Y0108225D01*
X0139008Y0108957D02*
X0139258Y0108957D01*
X0139258Y0109955D02*
X0139008Y0109955D01*
X0139008Y0110954D02*
X0139258Y0110954D01*
X0139258Y0111952D02*
X0139008Y0111952D01*
X0137226Y0111952D02*
X0133941Y0111952D01*
X0134741Y0110954D02*
X0136425Y0110954D01*
X0136383Y0109955D02*
X0134783Y0109955D01*
X0134783Y0108957D02*
X0136383Y0108957D01*
X0136383Y0107958D02*
X0134783Y0107958D01*
X0134783Y0106960D02*
X0136383Y0106960D01*
X0136383Y0105961D02*
X0134783Y0105961D01*
X0134647Y0104963D02*
X0136519Y0104963D01*
X0132158Y0104963D02*
X0131908Y0104963D01*
X0131908Y0105961D02*
X0132158Y0105961D01*
X0132158Y0106960D02*
X0131908Y0106960D01*
X0142433Y0100000D02*
X0144333Y0100000D01*
X0145418Y0097973D02*
X0183333Y0097973D01*
X0183333Y0098972D02*
X0146416Y0098972D01*
X0147415Y0099970D02*
X0183333Y0099970D01*
X0147174Y0111952D02*
X0144635Y0111952D01*
X0145283Y0110954D02*
X0146176Y0110954D01*
X0146133Y0109955D02*
X0145283Y0109955D01*
X0145283Y0108957D02*
X0146133Y0108957D01*
D17*
X0153933Y0103200D03*
X0153133Y0094200D03*
X0162933Y0095700D03*
X0142433Y0100000D03*
X0167033Y0113900D03*
X0171780Y0114000D03*
X0169333Y0117400D03*
X0173333Y0122000D03*
X0161921Y0122800D03*
X0150133Y0127100D03*
X0146533Y0126400D03*
X0139333Y0128000D03*
X0146433Y0132800D03*
X0150133Y0133000D03*
X0149933Y0137700D03*
X0152333Y0145000D03*
X0163333Y0149000D03*
X0178333Y0143000D03*
X0178333Y0132000D03*
X0179333Y0109000D03*
X0138633Y0117600D03*
X0133833Y0119000D03*
X0139333Y0136000D03*
X0136333Y0140900D03*
X0130333Y0158000D03*
X0120333Y0159000D03*
X0176333Y0162000D03*
M02*
