G75*
%MOIN*%
%OFA0B0*%
%FSLAX25Y25*%
%IPPOS*%
%LPD*%
%AMOC8*
5,1,8,0,0,1.08239X$1,22.5*
%
%ADD10C,0.00800*%
%ADD11C,0.00591*%
%ADD12R,0.00157X0.12520*%
%ADD13R,0.00118X0.12520*%
%ADD14R,0.00118X0.02480*%
%ADD15R,0.00118X0.06220*%
%ADD16R,0.00157X0.02047*%
%ADD17R,0.00157X0.00945*%
%ADD18R,0.00118X0.01929*%
%ADD19R,0.00118X0.00709*%
%ADD20R,0.00118X0.02047*%
%ADD21R,0.00157X0.01772*%
%ADD22R,0.00157X0.00551*%
%ADD23R,0.00157X0.01811*%
%ADD24R,0.00118X0.01654*%
%ADD25R,0.00118X0.00433*%
%ADD26R,0.00118X0.01811*%
%ADD27R,0.00157X0.01654*%
%ADD28R,0.00118X0.00276*%
%ADD29R,0.00118X0.00394*%
%ADD30R,0.00118X0.01496*%
%ADD31R,0.00118X0.00551*%
%ADD32R,0.00157X0.00669*%
%ADD33R,0.00157X0.01378*%
%ADD34R,0.00157X0.00709*%
%ADD35R,0.00157X0.01496*%
%ADD36R,0.00118X0.00984*%
%ADD37R,0.00118X0.01260*%
%ADD38R,0.00157X0.01929*%
%ADD39R,0.00157X0.01102*%
%ADD40R,0.00118X0.00827*%
%ADD41R,0.00118X0.00945*%
%ADD42R,0.00157X0.02480*%
%ADD43R,0.00157X0.00984*%
%ADD44R,0.00118X0.01102*%
%ADD45R,0.00118X0.01772*%
%ADD46R,0.00157X0.01260*%
%ADD47R,0.00157X0.00394*%
%ADD48R,0.00157X0.02087*%
%ADD49R,0.00118X0.03031*%
%ADD50R,0.00118X0.00157*%
%ADD51R,0.00118X0.02638*%
%ADD52R,0.00157X0.01220*%
%ADD53R,0.00157X0.00157*%
%ADD54R,0.00118X0.01220*%
%ADD55R,0.00118X0.00669*%
%ADD56R,0.00118X0.01378*%
%ADD57R,0.00157X0.02205*%
%ADD58R,0.00118X0.02205*%
%ADD59R,0.00118X0.10394*%
%ADD60R,0.00118X0.10748*%
%ADD61R,0.00079X0.10984*%
%ADD62R,0.00157X0.11220*%
%ADD63R,0.00118X0.11339*%
%ADD64R,0.00118X0.11457*%
%ADD65R,0.00079X0.11575*%
%ADD66R,0.00118X0.02126*%
%ADD67R,0.00118X0.08976*%
%ADD68R,0.00157X0.01890*%
%ADD69R,0.00157X0.00827*%
%ADD70R,0.00157X0.02362*%
%ADD71R,0.00157X0.03425*%
%ADD72R,0.00118X0.00591*%
%ADD73R,0.00118X0.02008*%
%ADD74R,0.00118X0.03307*%
%ADD75R,0.00118X0.01535*%
%ADD76R,0.00118X0.00472*%
%ADD77R,0.00118X0.03425*%
%ADD78R,0.00157X0.01417*%
%ADD79R,0.00157X0.00472*%
%ADD80R,0.00157X0.01299*%
%ADD81R,0.00118X0.01417*%
%ADD82R,0.00118X0.01181*%
%ADD83R,0.00157X0.01063*%
%ADD84R,0.00157X0.03307*%
%ADD85R,0.00118X0.03189*%
%ADD86R,0.00118X0.01299*%
%ADD87R,0.00118X0.00236*%
%ADD88R,0.00157X0.00591*%
%ADD89R,0.00157X0.00236*%
%ADD90R,0.00157X0.03071*%
%ADD91R,0.00118X0.00354*%
%ADD92R,0.00118X0.03071*%
%ADD93R,0.00118X0.02953*%
%ADD94R,0.00157X0.02835*%
%ADD95R,0.00157X0.00354*%
%ADD96R,0.00157X0.01181*%
%ADD97R,0.00118X0.01063*%
%ADD98R,0.00118X0.02835*%
%ADD99R,0.00118X0.02598*%
%ADD100R,0.00118X0.02362*%
%ADD101R,0.00118X0.02244*%
%ADD102R,0.00157X0.02126*%
%ADD103R,0.00118X0.11575*%
%ADD104R,0.00118X0.11220*%
%ADD105R,0.00118X0.10984*%
%ADD106R,0.00118X0.09685*%
%ADD107R,0.00118X0.10039*%
%ADD108R,0.00079X0.10276*%
%ADD109R,0.00157X0.10512*%
%ADD110R,0.00118X0.10630*%
%ADD111R,0.00079X0.10866*%
%ADD112R,0.00118X0.05315*%
%ADD113R,0.00157X0.03661*%
%ADD114R,0.00118X0.03661*%
%ADD115R,0.00157X0.03780*%
%ADD116R,0.00118X0.03780*%
%ADD117R,0.00118X0.03898*%
%ADD118R,0.00157X0.02008*%
%ADD119R,0.00157X0.03898*%
%ADD120R,0.00157X0.02717*%
%ADD121R,0.00118X0.01890*%
%ADD122R,0.00118X0.10866*%
%ADD123R,0.00118X0.10512*%
%ADD124R,0.00118X0.10276*%
%ADD125R,0.10748X0.00118*%
%ADD126R,0.11457X0.00118*%
%ADD127R,0.11929X0.00079*%
%ADD128R,0.12402X0.00157*%
%ADD129R,0.12638X0.00118*%
%ADD130R,0.12874X0.00118*%
%ADD131R,0.13110X0.00079*%
%ADD132R,0.04961X0.00118*%
%ADD133R,0.03071X0.00118*%
%ADD134R,0.05079X0.00118*%
%ADD135R,0.02244X0.00157*%
%ADD136R,0.00945X0.00157*%
%ADD137R,0.01181X0.00157*%
%ADD138R,0.00472X0.00157*%
%ADD139R,0.02835X0.00157*%
%ADD140R,0.02244X0.00118*%
%ADD141R,0.00591X0.00118*%
%ADD142R,0.00945X0.00118*%
%ADD143R,0.00354X0.00118*%
%ADD144R,0.02598X0.00118*%
%ADD145R,0.02362X0.00118*%
%ADD146R,0.00472X0.00118*%
%ADD147R,0.00827X0.00118*%
%ADD148R,0.02480X0.00118*%
%ADD149R,0.02480X0.00157*%
%ADD150R,0.00236X0.00157*%
%ADD151R,0.00709X0.00157*%
%ADD152R,0.00354X0.00157*%
%ADD153R,0.00709X0.00118*%
%ADD154R,0.00236X0.00118*%
%ADD155R,0.02598X0.00157*%
%ADD156R,0.00591X0.00157*%
%ADD157R,0.02717X0.00118*%
%ADD158R,0.02835X0.00118*%
%ADD159R,0.00827X0.00157*%
%ADD160R,0.01299X0.00118*%
%ADD161R,0.01654X0.00118*%
%ADD162R,0.01063X0.00118*%
%ADD163R,0.01063X0.00157*%
%ADD164R,0.01181X0.00118*%
%ADD165R,0.02126X0.00118*%
%ADD166R,0.02126X0.00157*%
%ADD167R,0.01417X0.00118*%
%ADD168R,0.13110X0.00118*%
%ADD169R,0.12402X0.00118*%
%ADD170R,0.11929X0.00118*%
%ADD171R,0.02756X0.00394*%
%ADD172R,0.04331X0.00394*%
%ADD173R,0.05118X0.00394*%
%ADD174R,0.05512X0.00394*%
%ADD175R,0.06299X0.00394*%
%ADD176R,0.07087X0.00394*%
%ADD177R,0.09449X0.00394*%
%ADD178R,0.10630X0.00394*%
%ADD179R,0.11417X0.00394*%
%ADD180R,0.10236X0.00394*%
%ADD181R,0.01181X0.00394*%
%ADD182R,0.01575X0.00394*%
%ADD183R,0.00787X0.00394*%
%ADD184R,0.00394X0.00394*%
%ADD185R,0.00157X0.13386*%
%ADD186R,0.00118X0.13386*%
%ADD187R,0.00118X0.02913*%
%ADD188R,0.00118X0.09646*%
%ADD189R,0.00157X0.02638*%
%ADD190R,0.00157X0.00433*%
%ADD191R,0.00118X0.02087*%
%ADD192R,0.00157X0.01535*%
%ADD193R,0.00157X0.00276*%
%ADD194R,0.00118X0.00118*%
%ADD195R,0.00118X0.02756*%
%ADD196C,0.02236*%
%ADD197R,0.00079X0.10512*%
%ADD198R,0.00157X0.10394*%
%ADD199R,0.00118X0.10157*%
%ADD200R,0.00079X0.10039*%
%ADD201R,0.00118X0.09921*%
%ADD202R,0.00157X0.00118*%
%ADD203R,0.00157X0.02598*%
%ADD204C,0.00300*%
%ADD205R,0.12441X0.00157*%
%ADD206R,0.12598X0.00157*%
%ADD207R,0.03780X0.00157*%
%ADD208R,0.03465X0.00157*%
%ADD209R,0.03937X0.00157*%
%ADD210R,0.01575X0.00157*%
%ADD211R,0.01260X0.00157*%
%ADD212R,0.02520X0.00157*%
%ADD213R,0.03307X0.00157*%
%ADD214R,0.01417X0.00157*%
%ADD215R,0.01890X0.00157*%
%ADD216R,0.02992X0.00157*%
%ADD217R,0.00630X0.00157*%
%ADD218R,0.02677X0.00157*%
%ADD219R,0.01102X0.00157*%
%ADD220R,0.01732X0.00157*%
%ADD221R,0.00787X0.00157*%
%ADD222R,0.00315X0.00157*%
%ADD223R,0.04724X0.00157*%
%ADD224R,0.04567X0.00157*%
%ADD225R,0.02047X0.00157*%
%ADD226R,0.02205X0.00157*%
%ADD227R,0.04409X0.00157*%
%ADD228R,0.02362X0.00157*%
%ADD229R,0.04252X0.00157*%
D10*
X0125459Y0118189D02*
X0131955Y0118189D01*
X0131955Y0121142D01*
X0115223Y0124094D02*
X0115223Y0135906D01*
X0125459Y0141811D02*
X0131955Y0141811D01*
X0131955Y0138858D01*
X0134114Y0139843D02*
X0134116Y0139883D01*
X0134122Y0139922D01*
X0134132Y0139961D01*
X0134145Y0139998D01*
X0134163Y0140034D01*
X0134184Y0140068D01*
X0134208Y0140100D01*
X0134235Y0140129D01*
X0134265Y0140156D01*
X0134297Y0140179D01*
X0134332Y0140199D01*
X0134368Y0140215D01*
X0134406Y0140228D01*
X0134445Y0140237D01*
X0134484Y0140242D01*
X0134524Y0140243D01*
X0134564Y0140240D01*
X0134603Y0140233D01*
X0134641Y0140222D01*
X0134679Y0140208D01*
X0134714Y0140189D01*
X0134747Y0140168D01*
X0134779Y0140143D01*
X0134807Y0140115D01*
X0134833Y0140085D01*
X0134855Y0140052D01*
X0134874Y0140017D01*
X0134890Y0139980D01*
X0134902Y0139942D01*
X0134910Y0139903D01*
X0134914Y0139863D01*
X0134914Y0139823D01*
X0134910Y0139783D01*
X0134902Y0139744D01*
X0134890Y0139706D01*
X0134874Y0139669D01*
X0134855Y0139634D01*
X0134833Y0139601D01*
X0134807Y0139571D01*
X0134779Y0139543D01*
X0134747Y0139518D01*
X0134714Y0139497D01*
X0134679Y0139478D01*
X0134641Y0139464D01*
X0134603Y0139453D01*
X0134564Y0139446D01*
X0134524Y0139443D01*
X0134484Y0139444D01*
X0134445Y0139449D01*
X0134406Y0139458D01*
X0134368Y0139471D01*
X0134332Y0139487D01*
X0134297Y0139507D01*
X0134265Y0139530D01*
X0134235Y0139557D01*
X0134208Y0139586D01*
X0134184Y0139618D01*
X0134163Y0139652D01*
X0134145Y0139688D01*
X0134132Y0139725D01*
X0134122Y0139764D01*
X0134116Y0139803D01*
X0134114Y0139843D01*
X0128583Y0151125D02*
X0128583Y0154875D01*
D11*
X0203614Y0104361D02*
X0203420Y0102456D01*
X0202780Y0102251D01*
X0202182Y0101943D01*
X0200698Y0103154D01*
X0199680Y0102136D01*
X0200890Y0100652D01*
X0200582Y0100054D01*
X0200377Y0099413D01*
X0198472Y0099220D01*
X0198472Y0097780D01*
X0200377Y0097587D01*
X0200582Y0096946D01*
X0200890Y0096348D01*
X0199680Y0094864D01*
X0200698Y0093846D01*
X0202182Y0095057D01*
X0202779Y0094749D01*
X0203627Y0096795D01*
X0203248Y0097007D01*
X0202930Y0097301D01*
X0202689Y0097662D01*
X0202539Y0098069D01*
X0202488Y0098500D01*
X0202541Y0098939D01*
X0202696Y0099352D01*
X0202946Y0099717D01*
X0203275Y0100011D01*
X0203664Y0100220D01*
X0204092Y0100329D01*
X0204534Y0100334D01*
X0204964Y0100234D01*
X0205358Y0100034D01*
X0205694Y0099746D01*
X0205951Y0099387D01*
X0206115Y0098977D01*
X0206178Y0098540D01*
X0206135Y0098100D01*
X0205988Y0097684D01*
X0205747Y0097314D01*
X0205425Y0097012D01*
X0205040Y0096795D01*
X0205887Y0094749D01*
X0206485Y0095057D01*
X0207969Y0093846D01*
X0208987Y0094864D01*
X0207777Y0096348D01*
X0208085Y0096946D01*
X0208290Y0097587D01*
X0210195Y0097780D01*
X0210195Y0099220D01*
X0208290Y0099413D01*
X0208085Y0100054D01*
X0207777Y0100652D01*
X0208987Y0102136D01*
X0207969Y0103154D01*
X0206485Y0101943D01*
X0205887Y0102251D01*
X0205247Y0102456D01*
X0205053Y0104361D01*
X0203614Y0104361D01*
X0203592Y0104152D02*
X0205074Y0104152D01*
X0205134Y0103562D02*
X0203532Y0103562D01*
X0203473Y0102973D02*
X0205194Y0102973D01*
X0205471Y0102384D02*
X0203195Y0102384D01*
X0201641Y0102384D02*
X0199928Y0102384D01*
X0199957Y0101795D02*
X0208709Y0101795D01*
X0208738Y0102384D02*
X0207026Y0102384D01*
X0207748Y0102973D02*
X0208149Y0102973D01*
X0208229Y0101206D02*
X0200438Y0101206D01*
X0200872Y0100617D02*
X0207794Y0100617D01*
X0208093Y0100028D02*
X0205365Y0100028D01*
X0205914Y0099439D02*
X0208281Y0099439D01*
X0209128Y0097672D02*
X0205981Y0097672D01*
X0206151Y0098261D02*
X0210195Y0098261D01*
X0210195Y0098850D02*
X0206134Y0098850D01*
X0205500Y0097083D02*
X0208128Y0097083D01*
X0207851Y0096494D02*
X0205164Y0096494D01*
X0205408Y0095905D02*
X0208138Y0095905D01*
X0208619Y0095316D02*
X0205652Y0095316D01*
X0206890Y0094727D02*
X0208849Y0094727D01*
X0208260Y0094137D02*
X0207612Y0094137D01*
X0203258Y0095905D02*
X0200528Y0095905D01*
X0200815Y0096494D02*
X0203502Y0096494D01*
X0203166Y0097083D02*
X0200538Y0097083D01*
X0199538Y0097672D02*
X0202685Y0097672D01*
X0202516Y0098261D02*
X0198472Y0098261D01*
X0198472Y0098850D02*
X0202530Y0098850D01*
X0202756Y0099439D02*
X0200385Y0099439D01*
X0200574Y0100028D02*
X0203306Y0100028D01*
X0200918Y0102973D02*
X0200517Y0102973D01*
X0200048Y0095316D02*
X0203014Y0095316D01*
X0201777Y0094727D02*
X0199817Y0094727D01*
X0200406Y0094137D02*
X0201054Y0094137D01*
D12*
X0146089Y0094171D03*
X0145814Y0094171D03*
X0145538Y0094171D03*
X0145262Y0094171D03*
X0141404Y0094171D03*
X0141129Y0094171D03*
X0140853Y0094171D03*
X0140577Y0094171D03*
D13*
X0140715Y0094171D03*
X0140991Y0094171D03*
X0141266Y0094171D03*
X0145400Y0094171D03*
X0145676Y0094171D03*
X0145951Y0094171D03*
D14*
X0141542Y0099191D03*
X0132744Y0091831D03*
X0141542Y0089151D03*
X0142920Y0089151D03*
X0143196Y0089151D03*
X0143471Y0089151D03*
X0154513Y0096380D03*
X0162526Y0093264D03*
X0171878Y0091874D03*
X0173768Y0089157D03*
X0182526Y0093264D03*
X0193768Y0089257D03*
D15*
X0141542Y0094171D03*
D16*
X0141680Y0094171D03*
X0141680Y0099407D03*
X0141680Y0088935D03*
D17*
X0142782Y0090588D03*
X0141680Y0091966D03*
X0143058Y0094171D03*
X0141680Y0096376D03*
X0142782Y0097478D03*
X0152288Y0091833D03*
X0163333Y0090134D03*
X0183333Y0090134D03*
X0192961Y0094986D03*
X0133158Y0090788D03*
X0132607Y0091339D03*
D18*
X0132193Y0088918D03*
X0134673Y0088918D03*
X0141818Y0088876D03*
X0144849Y0092734D03*
X0144849Y0095608D03*
X0143471Y0096317D03*
X0141818Y0099466D03*
X0134673Y0100375D03*
D19*
X0141818Y0096376D03*
X0142644Y0096100D03*
X0143196Y0094171D03*
X0141818Y0091966D03*
X0134398Y0091339D03*
X0131918Y0092717D03*
X0134122Y0094371D03*
X0152505Y0091951D03*
X0153962Y0091479D03*
X0154040Y0091479D03*
X0163471Y0089189D03*
X0163550Y0089189D03*
X0163668Y0089189D03*
X0163944Y0089189D03*
X0164062Y0089189D03*
X0164140Y0089189D03*
X0164416Y0089189D03*
X0164495Y0089189D03*
X0164613Y0089189D03*
X0172705Y0090398D03*
X0172626Y0091579D03*
X0174240Y0090398D03*
X0183471Y0089189D03*
X0183550Y0089189D03*
X0183668Y0089189D03*
X0183944Y0089189D03*
X0184062Y0089189D03*
X0184140Y0089189D03*
X0184416Y0089189D03*
X0184495Y0089189D03*
X0184613Y0089189D03*
X0192705Y0090498D03*
X0192705Y0091561D03*
X0192705Y0092978D03*
X0193099Y0094986D03*
X0193217Y0094986D03*
X0194713Y0094277D03*
X0194240Y0090498D03*
X0184140Y0094031D03*
X0164140Y0094031D03*
D20*
X0141818Y0094171D03*
D21*
X0141955Y0099545D03*
X0141955Y0088797D03*
X0172016Y0088803D03*
X0174851Y0088803D03*
X0172016Y0091874D03*
X0194851Y0088903D03*
D22*
X0142507Y0092320D03*
X0142231Y0092163D03*
X0141955Y0092045D03*
X0142231Y0096179D03*
X0141955Y0096297D03*
X0135087Y0096497D03*
X0133985Y0094292D03*
X0133158Y0092796D03*
X0132331Y0092796D03*
X0132055Y0092796D03*
X0131780Y0096497D03*
D23*
X0134536Y0100434D03*
X0143058Y0096376D03*
X0144711Y0095549D03*
X0144711Y0092793D03*
X0141955Y0094171D03*
X0134536Y0088859D03*
D24*
X0134122Y0088780D03*
X0132744Y0088780D03*
X0142093Y0088738D03*
X0142369Y0088738D03*
X0142644Y0088738D03*
X0135225Y0094725D03*
X0142093Y0099604D03*
X0142920Y0099604D03*
X0143471Y0099604D03*
X0142920Y0096454D03*
X0134122Y0100513D03*
X0132744Y0100513D03*
X0154788Y0093723D03*
X0163196Y0089661D03*
X0163550Y0090724D03*
X0163668Y0090724D03*
X0172154Y0088744D03*
X0183196Y0089661D03*
X0183550Y0090724D03*
X0183668Y0090724D03*
X0192154Y0088844D03*
X0192233Y0094868D03*
D25*
X0142093Y0096238D03*
X0142093Y0092104D03*
X0134673Y0092855D03*
X0134398Y0092855D03*
X0134122Y0092855D03*
X0133847Y0092855D03*
X0133571Y0092855D03*
X0133296Y0092855D03*
X0133847Y0094233D03*
X0133847Y0096438D03*
X0134122Y0096438D03*
X0134398Y0096438D03*
X0134673Y0096438D03*
X0134949Y0096438D03*
X0133571Y0096438D03*
X0133296Y0096438D03*
X0133020Y0096438D03*
X0132744Y0096438D03*
X0132469Y0096438D03*
X0132193Y0096438D03*
X0131918Y0096438D03*
D26*
X0132469Y0100434D03*
X0134398Y0100434D03*
X0143196Y0096376D03*
X0142093Y0094171D03*
X0134398Y0088859D03*
X0132469Y0088859D03*
D27*
X0132607Y0088780D03*
X0132882Y0088780D03*
X0133985Y0088780D03*
X0134260Y0088780D03*
X0142231Y0088738D03*
X0142507Y0088738D03*
X0143885Y0088738D03*
X0144711Y0088738D03*
X0142231Y0094250D03*
X0142231Y0099604D03*
X0143058Y0099604D03*
X0143609Y0099604D03*
X0144711Y0099604D03*
X0152761Y0095967D03*
X0153706Y0095967D03*
X0164751Y0093441D03*
X0172961Y0090988D03*
X0173433Y0088744D03*
X0184751Y0093441D03*
X0192961Y0091088D03*
X0193433Y0088844D03*
X0194851Y0096167D03*
X0134260Y0100513D03*
X0132607Y0100513D03*
X0131780Y0094725D03*
D28*
X0133571Y0094154D03*
X0142369Y0090805D03*
X0142369Y0097694D03*
D29*
X0143471Y0094171D03*
X0142369Y0092242D03*
X0133296Y0095198D03*
D30*
X0142369Y0094171D03*
X0144573Y0095549D03*
X0144573Y0092793D03*
X0144573Y0088659D03*
X0144298Y0088659D03*
X0144022Y0088659D03*
X0144022Y0099683D03*
X0143747Y0099683D03*
X0144298Y0099683D03*
X0144573Y0099683D03*
X0142644Y0099683D03*
X0142369Y0099683D03*
D31*
X0142369Y0096179D03*
X0142644Y0092320D03*
X0134949Y0092796D03*
X0132469Y0092796D03*
X0132193Y0092796D03*
X0133020Y0095119D03*
X0134398Y0097875D03*
D32*
X0132882Y0095060D03*
X0142507Y0097616D03*
X0142782Y0092380D03*
X0142507Y0090726D03*
D33*
X0143333Y0092301D03*
X0144160Y0092734D03*
X0142507Y0094230D03*
X0143885Y0095765D03*
X0144160Y0095608D03*
X0133709Y0098288D03*
X0133433Y0098288D03*
X0133158Y0098288D03*
X0133985Y0091123D03*
D34*
X0132607Y0092717D03*
X0134260Y0094371D03*
X0142507Y0096100D03*
X0143333Y0094171D03*
X0161916Y0091197D03*
X0161916Y0089189D03*
X0163333Y0089189D03*
X0163806Y0089189D03*
X0164278Y0089189D03*
X0164751Y0089189D03*
X0174851Y0094413D03*
X0181916Y0091197D03*
X0181916Y0089189D03*
X0183333Y0089189D03*
X0183806Y0089189D03*
X0184278Y0089189D03*
X0184751Y0089189D03*
X0194851Y0091561D03*
D35*
X0144436Y0092793D03*
X0144436Y0095549D03*
X0144436Y0099683D03*
X0144160Y0099683D03*
X0143885Y0099683D03*
X0142782Y0099683D03*
X0142507Y0099683D03*
X0135087Y0094646D03*
X0144160Y0088659D03*
X0144436Y0088659D03*
D36*
X0144022Y0090726D03*
X0142644Y0090726D03*
X0142644Y0097616D03*
X0144022Y0097616D03*
X0132744Y0098091D03*
D37*
X0133020Y0098229D03*
X0133847Y0098229D03*
X0134949Y0094646D03*
X0142644Y0094171D03*
D38*
X0143333Y0096317D03*
X0143333Y0099466D03*
X0144987Y0099466D03*
X0132331Y0100375D03*
X0132331Y0088918D03*
X0142782Y0088876D03*
X0144987Y0088876D03*
D39*
X0143885Y0090667D03*
X0142782Y0094250D03*
X0142782Y0096179D03*
X0143885Y0097557D03*
X0134811Y0094568D03*
X0132331Y0094843D03*
X0131780Y0092639D03*
X0134260Y0091261D03*
X0132882Y0098150D03*
D40*
X0132744Y0094981D03*
X0134398Y0094430D03*
X0133571Y0090729D03*
X0133296Y0090729D03*
X0142920Y0092301D03*
X0152426Y0091892D03*
X0162054Y0091138D03*
X0162133Y0091138D03*
X0162251Y0091138D03*
X0162526Y0091138D03*
X0162605Y0091138D03*
X0162723Y0091138D03*
X0162999Y0091138D03*
X0163117Y0091138D03*
X0163196Y0091138D03*
X0163196Y0092201D03*
X0163117Y0092201D03*
X0163471Y0092201D03*
X0163550Y0092201D03*
X0163668Y0092201D03*
X0163944Y0092319D03*
X0162133Y0089248D03*
X0162054Y0089248D03*
X0172351Y0091756D03*
X0172705Y0091520D03*
X0173217Y0091283D03*
X0174162Y0090339D03*
X0174595Y0091756D03*
X0172705Y0093291D03*
X0182054Y0091138D03*
X0182133Y0091138D03*
X0182251Y0091138D03*
X0182526Y0091138D03*
X0182605Y0091138D03*
X0182723Y0091138D03*
X0182999Y0091138D03*
X0183117Y0091138D03*
X0183196Y0091138D03*
X0183196Y0092201D03*
X0183117Y0092201D03*
X0183471Y0092201D03*
X0183550Y0092201D03*
X0183668Y0092201D03*
X0183944Y0092319D03*
X0182133Y0089248D03*
X0182054Y0089248D03*
X0194162Y0090439D03*
D41*
X0194044Y0090380D03*
X0193217Y0091443D03*
X0192823Y0093096D03*
X0194162Y0093096D03*
X0192823Y0094986D03*
X0184613Y0091079D03*
X0184495Y0091079D03*
X0182999Y0092260D03*
X0182723Y0092378D03*
X0182251Y0089307D03*
X0174044Y0090280D03*
X0172233Y0091815D03*
X0174988Y0094295D03*
X0164613Y0091079D03*
X0164495Y0091079D03*
X0162999Y0092260D03*
X0162723Y0092378D03*
X0162251Y0089307D03*
X0154316Y0091597D03*
X0152151Y0091833D03*
X0142920Y0094171D03*
X0132469Y0094922D03*
D42*
X0135087Y0100099D03*
X0135087Y0089194D03*
X0143058Y0089151D03*
X0143333Y0089151D03*
X0143609Y0089151D03*
X0164278Y0093264D03*
X0184278Y0093264D03*
X0194378Y0098824D03*
D43*
X0144160Y0097616D03*
X0143058Y0092380D03*
X0144160Y0090726D03*
X0134536Y0094509D03*
X0134260Y0098091D03*
D44*
X0134122Y0098150D03*
X0134673Y0094568D03*
X0135225Y0092639D03*
X0143196Y0092320D03*
X0143471Y0092439D03*
X0143747Y0092596D03*
D45*
X0144849Y0088797D03*
X0152623Y0096026D03*
X0153844Y0096026D03*
X0162054Y0093382D03*
X0163471Y0090665D03*
X0172823Y0090929D03*
X0173571Y0088803D03*
X0182054Y0093382D03*
X0183471Y0090665D03*
X0192823Y0091029D03*
X0193571Y0088903D03*
X0194988Y0096108D03*
X0144849Y0099545D03*
X0143196Y0099545D03*
D46*
X0143609Y0092517D03*
X0133985Y0098229D03*
D47*
X0133158Y0095198D03*
X0143609Y0094171D03*
D48*
X0143609Y0096238D03*
X0134811Y0100296D03*
X0134811Y0088997D03*
D49*
X0143747Y0089427D03*
D50*
X0143747Y0094171D03*
X0121770Y0158000D03*
D51*
X0143747Y0096513D03*
X0145125Y0095687D03*
X0145125Y0092655D03*
X0133020Y0091753D03*
D52*
X0132055Y0094784D03*
X0143885Y0092655D03*
D53*
X0143885Y0094171D03*
X0133433Y0094095D03*
D54*
X0132193Y0094784D03*
X0134122Y0091202D03*
X0144022Y0092655D03*
X0144022Y0095687D03*
D55*
X0144298Y0097616D03*
X0144298Y0090726D03*
X0135225Y0096438D03*
D56*
X0133571Y0098288D03*
X0133296Y0098288D03*
X0131918Y0094706D03*
X0133847Y0091123D03*
X0144298Y0092734D03*
X0144298Y0095608D03*
D57*
X0144987Y0095628D03*
X0144987Y0092714D03*
X0132055Y0089056D03*
X0132055Y0100237D03*
D58*
X0134949Y0100237D03*
X0145125Y0099328D03*
X0145125Y0089013D03*
X0134949Y0089056D03*
D59*
X0155222Y0093132D03*
X0191091Y0093214D03*
X0195776Y0093214D03*
D60*
X0195658Y0093391D03*
X0191209Y0093391D03*
X0175225Y0093291D03*
X0171681Y0093291D03*
X0155576Y0093309D03*
X0150891Y0093309D03*
D61*
X0191307Y0093509D03*
D62*
X0191425Y0093628D03*
D63*
X0191563Y0093687D03*
X0195343Y0093687D03*
D64*
X0195225Y0093746D03*
X0191681Y0093746D03*
D65*
X0191780Y0093805D03*
D66*
X0191878Y0089080D03*
X0193650Y0089080D03*
X0182133Y0093441D03*
X0174988Y0097839D03*
X0174713Y0097957D03*
X0173768Y0093587D03*
X0173650Y0093587D03*
X0173571Y0093587D03*
X0173296Y0093587D03*
X0173217Y0093587D03*
X0173099Y0093587D03*
X0171878Y0088980D03*
X0162133Y0093441D03*
X0194713Y0098765D03*
D67*
X0191878Y0095222D03*
D68*
X0192016Y0088962D03*
D69*
X0192016Y0091502D03*
X0194851Y0094218D03*
X0184751Y0091138D03*
X0183333Y0091138D03*
X0182861Y0091138D03*
X0182388Y0091138D03*
X0182861Y0092319D03*
X0183333Y0092201D03*
X0183806Y0092319D03*
X0172488Y0091638D03*
X0172016Y0094354D03*
X0164751Y0091138D03*
X0163333Y0091138D03*
X0162861Y0091138D03*
X0162388Y0091138D03*
X0162861Y0092319D03*
X0163333Y0092201D03*
X0163806Y0092319D03*
X0154178Y0091538D03*
X0135087Y0092776D03*
X0133709Y0090729D03*
X0133433Y0090729D03*
X0132607Y0094981D03*
X0132607Y0098013D03*
D70*
X0162388Y0093323D03*
X0182388Y0093323D03*
X0192016Y0094750D03*
D71*
X0192016Y0098116D03*
X0192488Y0098352D03*
D72*
X0193296Y0094927D03*
X0193296Y0091620D03*
X0192626Y0091620D03*
X0192154Y0091620D03*
X0194713Y0091620D03*
X0184888Y0091138D03*
X0184888Y0089130D03*
X0181778Y0093382D03*
X0182605Y0094091D03*
X0174240Y0093291D03*
X0174516Y0091756D03*
X0173296Y0091402D03*
X0172823Y0094354D03*
X0164888Y0091138D03*
X0164888Y0089130D03*
X0161778Y0093382D03*
X0162605Y0094091D03*
X0153844Y0091420D03*
X0152623Y0092010D03*
D73*
X0152426Y0096144D03*
X0154040Y0096144D03*
X0164613Y0093382D03*
X0173650Y0088921D03*
X0174044Y0093646D03*
X0184613Y0093382D03*
X0192154Y0094809D03*
X0194988Y0089021D03*
D74*
X0192154Y0098175D03*
X0192351Y0098293D03*
X0192626Y0098411D03*
X0192705Y0098411D03*
X0193099Y0098529D03*
D75*
X0194713Y0096108D03*
X0192351Y0094927D03*
X0192351Y0088785D03*
X0192233Y0088785D03*
X0193217Y0088785D03*
X0193296Y0088785D03*
X0194044Y0088785D03*
X0194595Y0088785D03*
X0194713Y0088785D03*
X0183117Y0089602D03*
X0182999Y0089602D03*
X0174713Y0088685D03*
X0174044Y0088685D03*
X0173296Y0088685D03*
X0172351Y0088685D03*
X0172233Y0088685D03*
X0163117Y0089602D03*
X0162999Y0089602D03*
X0153568Y0095908D03*
X0153450Y0095908D03*
X0153371Y0095908D03*
X0153096Y0095908D03*
X0153017Y0095908D03*
X0152899Y0095908D03*
X0133847Y0100572D03*
X0133571Y0100572D03*
X0133296Y0100572D03*
X0133020Y0100572D03*
X0133020Y0088721D03*
X0133296Y0088721D03*
X0133571Y0088721D03*
X0133847Y0088721D03*
D76*
X0151954Y0090180D03*
X0152899Y0092069D03*
X0154788Y0090180D03*
X0172626Y0090398D03*
X0174162Y0091697D03*
X0174240Y0091697D03*
X0174162Y0094413D03*
X0172705Y0094413D03*
X0172154Y0094413D03*
X0192233Y0091679D03*
X0192351Y0091679D03*
X0192626Y0090498D03*
X0194595Y0091679D03*
X0194240Y0092978D03*
X0194516Y0094395D03*
X0194595Y0094395D03*
X0193650Y0094868D03*
X0193571Y0094868D03*
X0193650Y0096167D03*
D77*
X0192823Y0098470D03*
X0192233Y0098234D03*
D78*
X0192488Y0088726D03*
X0192961Y0088726D03*
X0194378Y0088726D03*
X0182861Y0089543D03*
X0174851Y0091815D03*
X0172961Y0088626D03*
X0172488Y0088626D03*
X0162861Y0089543D03*
X0154651Y0088644D03*
X0151816Y0088644D03*
X0151816Y0091715D03*
X0152761Y0093723D03*
X0153233Y0093723D03*
X0153706Y0093723D03*
X0154178Y0093723D03*
X0154651Y0093723D03*
D79*
X0152288Y0093250D03*
X0153706Y0091361D03*
X0154651Y0090180D03*
X0151816Y0090180D03*
X0192488Y0091679D03*
X0193433Y0091679D03*
X0194378Y0094513D03*
X0193906Y0094750D03*
D80*
X0192488Y0094927D03*
X0193433Y0093273D03*
X0181916Y0093382D03*
X0174378Y0088567D03*
X0161916Y0093382D03*
X0154178Y0088585D03*
X0153706Y0088585D03*
X0153233Y0088585D03*
X0152761Y0088585D03*
X0152288Y0088585D03*
D81*
X0154788Y0088644D03*
X0154788Y0091715D03*
X0154513Y0093723D03*
X0154395Y0093723D03*
X0154316Y0093723D03*
X0154040Y0093723D03*
X0153962Y0093723D03*
X0153844Y0093723D03*
X0153568Y0093723D03*
X0153450Y0093723D03*
X0153371Y0093723D03*
X0153096Y0093723D03*
X0153017Y0093723D03*
X0152899Y0093723D03*
X0152623Y0093723D03*
X0152505Y0093723D03*
X0152426Y0093723D03*
X0163944Y0090843D03*
X0172626Y0088626D03*
X0172705Y0088626D03*
X0172823Y0088626D03*
X0173099Y0088626D03*
X0173217Y0088626D03*
X0174162Y0088626D03*
X0174240Y0088626D03*
X0174516Y0088626D03*
X0174595Y0088626D03*
X0173099Y0091106D03*
X0183944Y0090843D03*
X0192626Y0088726D03*
X0192705Y0088726D03*
X0192823Y0088726D03*
X0193099Y0088726D03*
X0194162Y0088726D03*
X0194240Y0088726D03*
X0194516Y0088726D03*
X0193099Y0091206D03*
X0194595Y0096167D03*
D82*
X0192705Y0094986D03*
X0192626Y0094986D03*
X0193099Y0093214D03*
X0193217Y0093214D03*
X0193650Y0093214D03*
X0193768Y0093214D03*
X0184888Y0093441D03*
X0184140Y0092614D03*
X0182605Y0092496D03*
X0182605Y0089425D03*
X0182526Y0089425D03*
X0174713Y0091815D03*
X0172823Y0093350D03*
X0164888Y0093441D03*
X0164140Y0092614D03*
X0162605Y0092496D03*
X0162605Y0089425D03*
X0162526Y0089425D03*
X0151954Y0091715D03*
X0152033Y0096912D03*
D83*
X0152288Y0096735D03*
X0162388Y0089366D03*
X0182388Y0089366D03*
X0192961Y0093155D03*
D84*
X0192961Y0098529D03*
D85*
X0193217Y0098588D03*
X0193296Y0098588D03*
D86*
X0194516Y0096108D03*
X0194988Y0094100D03*
X0193571Y0093273D03*
X0193296Y0093273D03*
X0184140Y0090902D03*
X0184062Y0090902D03*
X0182723Y0089484D03*
X0172154Y0091874D03*
X0164140Y0090902D03*
X0164062Y0090902D03*
X0162723Y0089484D03*
X0154513Y0088585D03*
X0154395Y0088585D03*
X0154316Y0088585D03*
X0154040Y0088585D03*
X0153962Y0088585D03*
X0153844Y0088585D03*
X0153568Y0088585D03*
X0153450Y0088585D03*
X0153371Y0088585D03*
X0153096Y0088585D03*
X0153017Y0088585D03*
X0152899Y0088585D03*
X0152623Y0088585D03*
X0152505Y0088585D03*
X0152426Y0088585D03*
X0152151Y0088585D03*
X0152033Y0088585D03*
X0151954Y0088585D03*
X0151954Y0096971D03*
D87*
X0153096Y0092187D03*
X0153371Y0091243D03*
X0161778Y0089189D03*
X0165007Y0093441D03*
X0172351Y0094531D03*
X0174516Y0094531D03*
X0174595Y0094531D03*
X0173650Y0091579D03*
X0181778Y0089189D03*
X0185007Y0093441D03*
X0193296Y0096167D03*
X0194044Y0091797D03*
D88*
X0193433Y0094927D03*
X0174378Y0091756D03*
X0152761Y0092010D03*
D89*
X0153233Y0092187D03*
X0172488Y0094531D03*
X0193433Y0096167D03*
D90*
X0193433Y0098647D03*
D91*
X0193571Y0096108D03*
X0193768Y0094809D03*
X0194044Y0094691D03*
X0194162Y0094691D03*
X0194240Y0094572D03*
X0194240Y0091738D03*
X0194162Y0091738D03*
X0194516Y0091738D03*
X0193768Y0091738D03*
X0193650Y0091738D03*
X0193571Y0091738D03*
X0184062Y0094091D03*
X0182723Y0094091D03*
X0174713Y0094472D03*
X0174240Y0094472D03*
X0172626Y0094472D03*
X0172233Y0094472D03*
X0173768Y0091638D03*
X0173571Y0091520D03*
X0174044Y0091638D03*
X0164062Y0094091D03*
X0162723Y0094091D03*
X0154513Y0090239D03*
X0154395Y0090239D03*
X0154316Y0090239D03*
X0154040Y0090239D03*
X0153962Y0090239D03*
X0153844Y0090239D03*
X0153568Y0090239D03*
X0153450Y0090239D03*
X0153371Y0090239D03*
X0153096Y0090239D03*
X0153017Y0090239D03*
X0152899Y0090239D03*
X0152623Y0090239D03*
X0152505Y0090239D03*
X0152426Y0090239D03*
X0152151Y0090239D03*
X0152033Y0090239D03*
X0153450Y0091302D03*
X0153568Y0091302D03*
X0153017Y0092128D03*
X0152151Y0093191D03*
X0152033Y0093191D03*
X0151954Y0093191D03*
D92*
X0193571Y0098647D03*
D93*
X0193650Y0098706D03*
X0193768Y0098706D03*
D94*
X0193906Y0098765D03*
X0193906Y0089435D03*
D95*
X0193906Y0091738D03*
X0194378Y0091738D03*
X0174378Y0094472D03*
X0173906Y0091638D03*
X0173433Y0091520D03*
X0154178Y0090239D03*
X0153706Y0090239D03*
X0153233Y0090239D03*
X0152761Y0090239D03*
X0152288Y0090239D03*
X0151816Y0093191D03*
D96*
X0154651Y0091715D03*
X0164278Y0090961D03*
X0184278Y0090961D03*
X0193906Y0093214D03*
X0194378Y0096167D03*
D97*
X0194044Y0093155D03*
X0194988Y0091502D03*
X0184416Y0091020D03*
X0184062Y0092437D03*
X0174162Y0093291D03*
X0164416Y0091020D03*
X0164062Y0092437D03*
X0154513Y0091656D03*
X0154395Y0091656D03*
X0152033Y0091774D03*
X0152151Y0096853D03*
D98*
X0154788Y0096439D03*
X0194044Y0098765D03*
D99*
X0194162Y0098765D03*
X0194240Y0098765D03*
D100*
X0194516Y0098765D03*
X0184416Y0093323D03*
X0164416Y0093323D03*
X0154395Y0096321D03*
X0131918Y0100158D03*
X0131918Y0089135D03*
D101*
X0154316Y0096262D03*
X0162251Y0093382D03*
X0164495Y0093382D03*
X0174516Y0098016D03*
X0174595Y0098016D03*
X0182251Y0093382D03*
X0184495Y0093382D03*
X0194595Y0098824D03*
X0194988Y0098588D03*
D102*
X0194851Y0098765D03*
X0174851Y0097957D03*
X0173906Y0093587D03*
X0173433Y0093587D03*
X0154178Y0096203D03*
D103*
X0195107Y0093805D03*
D104*
X0195422Y0093628D03*
D105*
X0195540Y0093509D03*
D106*
X0175776Y0092760D03*
X0171091Y0092760D03*
D107*
X0171209Y0092937D03*
X0175658Y0092937D03*
X0154907Y0092955D03*
D108*
X0171307Y0093055D03*
D109*
X0171425Y0093173D03*
D110*
X0171563Y0093232D03*
X0175343Y0093232D03*
X0155458Y0093250D03*
X0151009Y0093250D03*
D111*
X0171780Y0093350D03*
D112*
X0171878Y0096244D03*
D113*
X0172016Y0097189D03*
D114*
X0172154Y0097189D03*
X0172233Y0097307D03*
X0172351Y0097307D03*
D115*
X0172488Y0097366D03*
X0174378Y0097366D03*
D116*
X0174240Y0097366D03*
X0174162Y0097366D03*
X0172705Y0097366D03*
X0172626Y0097366D03*
D117*
X0172823Y0097425D03*
X0173099Y0097425D03*
X0173217Y0097425D03*
X0173296Y0097425D03*
X0173571Y0097425D03*
X0173650Y0097425D03*
X0173768Y0097425D03*
X0174044Y0097425D03*
D118*
X0172961Y0093646D03*
D119*
X0172961Y0097425D03*
X0173433Y0097425D03*
X0173906Y0097425D03*
D120*
X0173906Y0089276D03*
D121*
X0174988Y0088862D03*
X0174988Y0091815D03*
X0153962Y0096085D03*
X0152505Y0096085D03*
D122*
X0175107Y0093350D03*
D123*
X0175422Y0093173D03*
X0155340Y0093191D03*
D124*
X0155143Y0093073D03*
X0151363Y0093073D03*
X0175540Y0093055D03*
D125*
X0122715Y0155657D03*
X0122715Y0160343D03*
D126*
X0122715Y0160224D03*
X0122715Y0155776D03*
D127*
X0122715Y0160126D03*
D128*
X0122715Y0160008D03*
D129*
X0122715Y0159870D03*
X0122715Y0156091D03*
D130*
X0122715Y0156209D03*
X0122715Y0159752D03*
D131*
X0122715Y0159654D03*
D132*
X0118522Y0159555D03*
D133*
X0122656Y0159555D03*
D134*
X0126849Y0159555D03*
D135*
X0117046Y0159417D03*
X0117046Y0156583D03*
D136*
X0119349Y0158472D03*
X0120294Y0159417D03*
X0120648Y0157528D03*
X0126199Y0158472D03*
X0126199Y0156583D03*
X0180530Y0105732D03*
X0182105Y0104787D03*
X0181948Y0104315D03*
X0181948Y0104157D03*
X0180688Y0103370D03*
X0183522Y0103370D03*
X0184152Y0102425D03*
D137*
X0124428Y0156583D03*
X0123483Y0159417D03*
X0121829Y0159417D03*
D138*
X0121829Y0158472D03*
X0120766Y0158000D03*
X0122656Y0157528D03*
X0123483Y0158472D03*
X0124782Y0159417D03*
X0180451Y0105260D03*
X0180451Y0105102D03*
X0180451Y0104157D03*
X0180451Y0102898D03*
X0180451Y0102740D03*
X0180294Y0102110D03*
X0183759Y0104000D03*
X0183759Y0104157D03*
X0183759Y0104315D03*
X0183759Y0104472D03*
X0183759Y0104630D03*
D139*
X0128444Y0157528D03*
X0128089Y0159417D03*
D140*
X0128503Y0156917D03*
X0128503Y0156839D03*
X0128266Y0156445D03*
X0117164Y0156445D03*
X0117046Y0156720D03*
X0117046Y0159280D03*
D141*
X0120353Y0159280D03*
X0120707Y0157862D03*
X0121770Y0158728D03*
X0124723Y0158335D03*
X0124723Y0158217D03*
D142*
X0124546Y0157390D03*
X0124546Y0157272D03*
X0126199Y0156720D03*
X0126199Y0158335D03*
X0123483Y0159201D03*
X0123483Y0159280D03*
X0121829Y0159280D03*
X0121829Y0159201D03*
X0122656Y0156839D03*
X0122656Y0156720D03*
X0119349Y0158217D03*
X0119349Y0158335D03*
X0119349Y0158610D03*
D143*
X0120471Y0159083D03*
X0120589Y0158807D03*
X0120707Y0158335D03*
X0120707Y0158217D03*
X0121770Y0158335D03*
X0124841Y0159083D03*
X0124841Y0159201D03*
X0124841Y0159280D03*
D144*
X0128207Y0159280D03*
X0128325Y0159201D03*
X0128562Y0157862D03*
X0128444Y0157272D03*
X0120176Y0156839D03*
X0120176Y0156720D03*
X0116869Y0157390D03*
X0116869Y0157665D03*
X0116869Y0157783D03*
X0116869Y0157862D03*
X0116869Y0158138D03*
X0116869Y0158217D03*
X0116869Y0158335D03*
X0116869Y0158610D03*
D145*
X0116987Y0159083D03*
X0116987Y0159201D03*
X0116987Y0156917D03*
X0116987Y0156839D03*
X0120058Y0157193D03*
D146*
X0120766Y0158138D03*
X0120412Y0159201D03*
X0121829Y0158610D03*
X0122656Y0157390D03*
X0122656Y0157272D03*
X0123483Y0158335D03*
X0123483Y0158610D03*
X0124782Y0158610D03*
X0124782Y0158728D03*
X0124782Y0158807D03*
D147*
X0124605Y0157783D03*
X0124605Y0157665D03*
X0126140Y0158138D03*
X0126140Y0158217D03*
X0126140Y0158610D03*
X0126140Y0156917D03*
X0126140Y0156839D03*
X0123424Y0159083D03*
X0121770Y0159083D03*
X0120707Y0157665D03*
X0119290Y0158138D03*
D148*
X0120117Y0156917D03*
X0116928Y0157193D03*
X0116928Y0157272D03*
X0116928Y0158728D03*
X0116928Y0158807D03*
X0128385Y0159083D03*
X0128503Y0158807D03*
X0128503Y0158728D03*
X0128621Y0158610D03*
X0128621Y0158335D03*
X0128621Y0158217D03*
X0128621Y0158138D03*
X0128503Y0157193D03*
D149*
X0128503Y0157055D03*
X0128621Y0158472D03*
X0128503Y0158945D03*
X0120117Y0157055D03*
X0116928Y0157055D03*
X0116928Y0158945D03*
D150*
X0120530Y0158945D03*
X0123483Y0158000D03*
D151*
X0123483Y0158945D03*
X0124664Y0158000D03*
X0126081Y0157055D03*
X0122656Y0157055D03*
X0121829Y0158945D03*
D152*
X0120707Y0158472D03*
X0124841Y0158945D03*
D153*
X0124664Y0158138D03*
X0124664Y0157862D03*
X0123483Y0158728D03*
X0123483Y0158807D03*
X0121829Y0158807D03*
X0120766Y0157783D03*
X0119231Y0158728D03*
X0122656Y0157193D03*
X0122656Y0156917D03*
X0126081Y0157193D03*
X0126081Y0158728D03*
D154*
X0123483Y0158217D03*
X0123483Y0158138D03*
X0122656Y0157862D03*
X0122656Y0157783D03*
X0122656Y0157665D03*
X0121829Y0158138D03*
X0121829Y0158217D03*
X0120648Y0158610D03*
X0120648Y0158728D03*
D155*
X0120176Y0156583D03*
X0116869Y0157528D03*
X0116869Y0158000D03*
X0116869Y0158472D03*
X0128562Y0158000D03*
D156*
X0124723Y0158472D03*
D157*
X0128503Y0157783D03*
X0128503Y0157390D03*
D158*
X0128444Y0157665D03*
X0120176Y0156445D03*
D159*
X0124605Y0157528D03*
D160*
X0122597Y0156445D03*
X0120589Y0157390D03*
D161*
X0120412Y0157272D03*
D162*
X0124487Y0157193D03*
X0124487Y0156917D03*
D163*
X0124487Y0157055D03*
X0122597Y0156583D03*
D164*
X0124428Y0156720D03*
X0124428Y0156839D03*
X0126199Y0156445D03*
D165*
X0128444Y0156720D03*
D166*
X0128444Y0156583D03*
D167*
X0124428Y0156445D03*
D168*
X0122715Y0156327D03*
D169*
X0122715Y0156012D03*
D170*
X0122715Y0155894D03*
D171*
X0171385Y0170350D03*
X0171385Y0177437D03*
D172*
X0171385Y0177043D03*
D173*
X0171385Y0176650D03*
D174*
X0171581Y0176256D03*
D175*
X0171581Y0175862D03*
D176*
X0171975Y0175469D03*
D177*
X0171975Y0175075D03*
D178*
X0171778Y0174681D03*
D179*
X0171778Y0174287D03*
X0171778Y0173894D03*
X0171778Y0173500D03*
X0171778Y0173106D03*
X0171778Y0172713D03*
X0171778Y0172319D03*
D180*
X0171975Y0171925D03*
D181*
X0171385Y0171531D03*
X0171385Y0169563D03*
D182*
X0171581Y0169957D03*
X0171188Y0170744D03*
X0171188Y0171138D03*
D183*
X0171188Y0169169D03*
X0170794Y0168776D03*
D184*
X0170597Y0168382D03*
D185*
X0136189Y0094646D03*
X0135914Y0094646D03*
X0135638Y0094646D03*
X0135362Y0094646D03*
X0131504Y0094646D03*
X0131229Y0094646D03*
X0130953Y0094646D03*
X0130677Y0094646D03*
D186*
X0130815Y0094646D03*
X0131091Y0094646D03*
X0131366Y0094646D03*
X0135500Y0094646D03*
X0135776Y0094646D03*
X0136051Y0094646D03*
D187*
X0131642Y0089410D03*
X0135225Y0099883D03*
D188*
X0131642Y0096517D03*
D189*
X0131780Y0100020D03*
X0132882Y0091753D03*
X0131780Y0089272D03*
D190*
X0133433Y0092855D03*
X0133709Y0092855D03*
X0133985Y0092855D03*
X0134260Y0092855D03*
X0134536Y0092855D03*
X0134811Y0092855D03*
X0134811Y0096438D03*
X0134536Y0096438D03*
X0134260Y0096438D03*
X0133985Y0096438D03*
X0133709Y0096438D03*
X0133433Y0096438D03*
X0133158Y0096438D03*
X0132882Y0096438D03*
X0132607Y0096438D03*
X0132331Y0096438D03*
X0132055Y0096438D03*
D191*
X0132193Y0100296D03*
D192*
X0132882Y0100572D03*
X0133158Y0100572D03*
X0133433Y0100572D03*
X0133709Y0100572D03*
X0133985Y0100572D03*
X0151816Y0096971D03*
X0153233Y0095908D03*
X0163806Y0090783D03*
X0183806Y0090783D03*
X0133709Y0088721D03*
X0133433Y0088721D03*
X0133158Y0088721D03*
D193*
X0133709Y0094154D03*
X0133433Y0095257D03*
D194*
X0133571Y0095335D03*
X0153371Y0092246D03*
X0161778Y0091138D03*
X0181778Y0091138D03*
D195*
X0135225Y0089331D03*
D196*
X0174733Y0125400D03*
D197*
X0151107Y0093191D03*
D198*
X0151225Y0093132D03*
D199*
X0151481Y0093014D03*
X0155025Y0093014D03*
D200*
X0151580Y0092955D03*
D201*
X0151678Y0092896D03*
D202*
X0153233Y0091183D03*
D203*
X0154651Y0096439D03*
D204*
X0152125Y0158469D02*
X0151928Y0158626D01*
X0151731Y0158823D01*
X0151337Y0159138D01*
X0150983Y0159492D01*
X0150786Y0159650D01*
X0150589Y0159846D01*
X0150589Y0167091D01*
X0150786Y0167130D01*
X0150944Y0167169D01*
X0151140Y0167209D01*
X0151298Y0167209D01*
X0151692Y0167287D01*
X0151849Y0167327D01*
X0152046Y0167366D01*
X0152046Y0166657D01*
X0152361Y0167051D01*
X0152755Y0167287D01*
X0152991Y0167406D01*
X0153699Y0167524D01*
X0154329Y0167445D01*
X0154841Y0167248D01*
X0155274Y0166972D01*
X0155629Y0166618D01*
X0155904Y0166146D01*
X0156101Y0165634D01*
X0156219Y0165083D01*
X0156219Y0164531D01*
X0154723Y0164571D01*
X0154644Y0165201D01*
X0154526Y0165516D01*
X0154408Y0165791D01*
X0154211Y0166028D01*
X0153975Y0166185D01*
X0153699Y0166303D01*
X0153385Y0166343D01*
X0153030Y0166303D01*
X0152755Y0166185D01*
X0152518Y0166028D01*
X0152322Y0165791D01*
X0152203Y0165516D01*
X0152046Y0164886D01*
X0152046Y0164217D01*
X0152203Y0163587D01*
X0152518Y0163114D01*
X0152755Y0162957D01*
X0153030Y0162839D01*
X0153385Y0162799D01*
X0153739Y0162839D01*
X0154014Y0162957D01*
X0154251Y0163114D01*
X0154566Y0163587D01*
X0155904Y0162957D01*
X0155629Y0162524D01*
X0155274Y0162169D01*
X0154881Y0161894D01*
X0154369Y0161697D01*
X0153778Y0161657D01*
X0153542Y0161657D01*
X0153306Y0161697D01*
X0152833Y0161854D01*
X0152636Y0161972D01*
X0152440Y0162130D01*
X0152282Y0162287D01*
X0152125Y0162484D01*
X0152125Y0158469D01*
X0152125Y0158508D02*
X0152075Y0158508D01*
X0152125Y0158807D02*
X0151747Y0158807D01*
X0151378Y0159105D02*
X0152125Y0159105D01*
X0152125Y0159404D02*
X0151071Y0159404D01*
X0150733Y0159703D02*
X0152125Y0159703D01*
X0152125Y0160001D02*
X0150589Y0160001D01*
X0150589Y0160300D02*
X0152125Y0160300D01*
X0152125Y0160598D02*
X0150589Y0160598D01*
X0150589Y0160897D02*
X0152125Y0160897D01*
X0152125Y0161195D02*
X0150589Y0161195D01*
X0150589Y0161494D02*
X0152125Y0161494D01*
X0152125Y0161792D02*
X0150589Y0161792D01*
X0150589Y0162091D02*
X0152125Y0162091D01*
X0152125Y0162389D02*
X0150589Y0162389D01*
X0150589Y0162688D02*
X0155733Y0162688D01*
X0155842Y0162986D02*
X0154059Y0162986D01*
X0154364Y0163285D02*
X0155207Y0163285D01*
X0156041Y0163285D01*
X0156101Y0163429D02*
X0155904Y0162957D01*
X0154566Y0163587D01*
X0154644Y0163902D01*
X0154684Y0164217D01*
X0154723Y0164571D01*
X0156219Y0164531D01*
X0156180Y0163980D01*
X0156101Y0163429D01*
X0156123Y0163583D02*
X0154573Y0163583D01*
X0154563Y0163583D01*
X0154639Y0163882D02*
X0156166Y0163882D01*
X0156194Y0164180D02*
X0154679Y0164180D01*
X0154713Y0164479D02*
X0156215Y0164479D01*
X0156219Y0164777D02*
X0154697Y0164777D01*
X0154660Y0165076D02*
X0156219Y0165076D01*
X0156157Y0165374D02*
X0154579Y0165374D01*
X0154459Y0165673D02*
X0156086Y0165673D01*
X0155971Y0165971D02*
X0154258Y0165971D01*
X0153777Y0166270D02*
X0155832Y0166270D01*
X0155658Y0166568D02*
X0150589Y0166568D01*
X0150589Y0166270D02*
X0152952Y0166270D01*
X0152471Y0165971D02*
X0150589Y0165971D01*
X0150589Y0165673D02*
X0152271Y0165673D01*
X0152168Y0165374D02*
X0150589Y0165374D01*
X0150589Y0165076D02*
X0152093Y0165076D01*
X0152046Y0164777D02*
X0150589Y0164777D01*
X0150589Y0164479D02*
X0152046Y0164479D01*
X0152055Y0164180D02*
X0150589Y0164180D01*
X0150589Y0163882D02*
X0152130Y0163882D01*
X0152206Y0163583D02*
X0150589Y0163583D01*
X0150589Y0163285D02*
X0152405Y0163285D01*
X0152710Y0162986D02*
X0150589Y0162986D01*
X0149920Y0163075D02*
X0149723Y0162681D01*
X0149487Y0162327D01*
X0149172Y0162091D01*
X0145629Y0162091D01*
X0145314Y0162327D01*
X0145038Y0162681D01*
X0144881Y0163114D01*
X0144802Y0163587D01*
X0146259Y0163587D01*
X0146298Y0163350D01*
X0146377Y0163193D01*
X0146455Y0162996D01*
X0146613Y0162878D01*
X0147007Y0162720D01*
X0147203Y0162681D01*
X0147440Y0162642D01*
X0147597Y0162681D01*
X0147755Y0162681D01*
X0147951Y0162760D01*
X0148109Y0162799D01*
X0148345Y0163035D01*
X0148424Y0163193D01*
X0148424Y0163390D01*
X0148385Y0163547D01*
X0148306Y0163665D01*
X0148188Y0163783D01*
X0147991Y0163902D01*
X0147440Y0164059D01*
X0147085Y0164138D01*
X0146692Y0164217D01*
X0146377Y0164335D01*
X0146062Y0164413D01*
X0145747Y0164531D01*
X0145471Y0164689D01*
X0145077Y0165083D01*
X0144959Y0165398D01*
X0144920Y0165713D01*
X0144999Y0166224D01*
X0145156Y0166618D01*
X0145392Y0166894D01*
X0145707Y0167130D01*
X0146062Y0167327D01*
X0146455Y0167445D01*
X0146888Y0167484D01*
X0147361Y0167524D01*
X0148227Y0167445D01*
X0148621Y0167327D01*
X0148975Y0167130D01*
X0149290Y0166894D01*
X0149566Y0166579D01*
X0149723Y0166185D01*
X0149802Y0165752D01*
X0148345Y0165752D01*
X0148306Y0165949D01*
X0148266Y0166106D01*
X0148030Y0166343D01*
X0147873Y0166421D01*
X0147715Y0166461D01*
X0147518Y0166500D01*
X0147164Y0166500D01*
X0147046Y0166461D01*
X0146888Y0166461D01*
X0146770Y0166421D01*
X0146534Y0166264D01*
X0146495Y0166146D01*
X0146455Y0165988D01*
X0146495Y0165791D01*
X0146613Y0165634D01*
X0146770Y0165516D01*
X0147007Y0165437D01*
X0147558Y0165280D01*
X0147873Y0165240D01*
X0148188Y0165161D01*
X0148542Y0165083D01*
X0148857Y0164965D01*
X0149133Y0164846D01*
X0149408Y0164689D01*
X0149644Y0164492D01*
X0149802Y0164256D01*
X0149920Y0163941D01*
X0149959Y0163587D01*
X0149920Y0163075D01*
X0149876Y0162986D02*
X0148296Y0162986D01*
X0148424Y0163285D02*
X0149936Y0163285D01*
X0149959Y0163583D02*
X0148361Y0163583D01*
X0148024Y0163882D02*
X0149927Y0163882D01*
X0149830Y0164180D02*
X0146873Y0164180D01*
X0146259Y0163583D02*
X0144802Y0163583D01*
X0144852Y0163285D02*
X0146331Y0163285D01*
X0146469Y0162986D02*
X0144927Y0162986D01*
X0145036Y0162688D02*
X0147171Y0162688D01*
X0147771Y0162688D02*
X0149726Y0162688D01*
X0149528Y0162389D02*
X0145265Y0162389D01*
X0145629Y0162091D02*
X0146022Y0161894D01*
X0146455Y0161736D01*
X0146928Y0161657D01*
X0147873Y0161657D01*
X0148345Y0161736D01*
X0148778Y0161894D01*
X0149172Y0162091D01*
X0148499Y0161792D02*
X0146302Y0161792D01*
X0145888Y0164479D02*
X0149653Y0164479D01*
X0149254Y0164777D02*
X0145383Y0164777D01*
X0145084Y0165076D02*
X0148561Y0165076D01*
X0148300Y0165971D02*
X0149762Y0165971D01*
X0149689Y0166270D02*
X0148103Y0166270D01*
X0148019Y0167464D02*
X0146664Y0167464D01*
X0145771Y0167165D02*
X0148911Y0167165D01*
X0149314Y0166867D02*
X0145369Y0166867D01*
X0145136Y0166568D02*
X0149570Y0166568D01*
X0150589Y0166867D02*
X0152046Y0166867D01*
X0152213Y0166867D02*
X0155380Y0166867D01*
X0154971Y0167165D02*
X0152551Y0167165D01*
X0152046Y0167165D02*
X0150928Y0167165D01*
X0153341Y0167464D02*
X0154178Y0167464D01*
X0157007Y0166343D02*
X0157125Y0166539D01*
X0157243Y0166697D01*
X0157400Y0166854D01*
X0157715Y0167091D01*
X0157912Y0167209D01*
X0158306Y0167366D01*
X0159014Y0167484D01*
X0159881Y0167484D01*
X0160117Y0167445D01*
X0160314Y0167445D01*
X0160510Y0167406D01*
X0160747Y0167327D01*
X0160904Y0167287D01*
X0161101Y0167209D01*
X0161259Y0167130D01*
X0161416Y0167012D01*
X0161692Y0166736D01*
X0161770Y0166539D01*
X0161849Y0166382D01*
X0161928Y0165909D01*
X0161928Y0162366D01*
X0161967Y0162287D01*
X0161967Y0162130D01*
X0162007Y0162051D01*
X0162007Y0162012D01*
X0162046Y0161933D01*
X0162046Y0161894D01*
X0162085Y0161815D01*
X0162085Y0161776D01*
X0160550Y0161776D01*
X0160550Y0161854D01*
X0160510Y0161894D01*
X0160510Y0161933D01*
X0160471Y0161972D01*
X0160471Y0162209D01*
X0160432Y0162248D01*
X0160432Y0162327D01*
X0160353Y0162248D01*
X0160274Y0162130D01*
X0160156Y0162051D01*
X0160038Y0162012D01*
X0159920Y0161933D01*
X0159841Y0161894D01*
X0159723Y0161815D01*
X0159605Y0161776D01*
X0159448Y0161736D01*
X0159329Y0161697D01*
X0159211Y0161697D01*
X0159093Y0161657D01*
X0158818Y0161657D01*
X0158699Y0161618D01*
X0158385Y0161618D01*
X0158188Y0161657D01*
X0157991Y0161657D01*
X0157833Y0161736D01*
X0157676Y0161776D01*
X0157361Y0161933D01*
X0157243Y0162012D01*
X0157007Y0162248D01*
X0156888Y0162406D01*
X0156810Y0162563D01*
X0156731Y0162878D01*
X0156692Y0163075D01*
X0156692Y0163272D01*
X0156731Y0163705D01*
X0156849Y0164059D01*
X0157046Y0164335D01*
X0157282Y0164571D01*
X0157558Y0164728D01*
X0157873Y0164846D01*
X0158227Y0164925D01*
X0158542Y0164965D01*
X0158857Y0164138D01*
X0158463Y0163941D01*
X0158306Y0163783D01*
X0158227Y0163626D01*
X0158227Y0163469D01*
X0158188Y0163350D01*
X0158227Y0163272D01*
X0158227Y0163193D01*
X0158266Y0163075D01*
X0158266Y0163035D01*
X0158306Y0162957D01*
X0158424Y0162839D01*
X0158503Y0162799D01*
X0158542Y0162760D01*
X0158621Y0162720D01*
X0158699Y0162720D01*
X0158778Y0162681D01*
X0159369Y0162681D01*
X0159841Y0162799D01*
X0159959Y0162878D01*
X0160156Y0163075D01*
X0160196Y0163193D01*
X0160274Y0163272D01*
X0160314Y0163390D01*
X0160314Y0163508D01*
X0160353Y0163587D01*
X0160353Y0163705D01*
X0160392Y0163783D01*
X0160392Y0164531D01*
X0160314Y0164492D01*
X0160274Y0164453D01*
X0160196Y0164413D01*
X0160156Y0164374D01*
X0160077Y0164374D01*
X0159920Y0164295D01*
X0159723Y0164295D01*
X0159566Y0165122D01*
X0159841Y0165161D01*
X0160077Y0165240D01*
X0160235Y0165358D01*
X0160353Y0165516D01*
X0160392Y0165713D01*
X0160392Y0165831D01*
X0160353Y0165949D01*
X0160353Y0166028D01*
X0160274Y0166185D01*
X0160156Y0166303D01*
X0159920Y0166421D01*
X0159841Y0166421D01*
X0159762Y0166461D01*
X0159487Y0166461D01*
X0159408Y0166500D01*
X0159290Y0166461D01*
X0159093Y0166461D01*
X0158975Y0166421D01*
X0158896Y0166421D01*
X0158739Y0166343D01*
X0158503Y0166106D01*
X0158424Y0165949D01*
X0158424Y0165831D01*
X0158385Y0165752D01*
X0158385Y0165634D01*
X0156849Y0165634D01*
X0156888Y0165909D01*
X0156928Y0166106D01*
X0157007Y0166343D01*
X0156982Y0166270D02*
X0158666Y0166270D01*
X0158435Y0165971D02*
X0156901Y0165971D01*
X0156855Y0165673D02*
X0158385Y0165673D01*
X0158542Y0164965D02*
X0158857Y0164138D01*
X0158936Y0164138D01*
X0159014Y0164177D01*
X0159093Y0164177D01*
X0159211Y0164217D01*
X0159369Y0164217D01*
X0159487Y0164256D01*
X0159644Y0164256D01*
X0159723Y0164295D01*
X0159566Y0165122D01*
X0159251Y0165083D01*
X0158896Y0165043D01*
X0158542Y0164965D01*
X0158613Y0164777D02*
X0157688Y0164777D01*
X0157190Y0164479D02*
X0158727Y0164479D01*
X0159688Y0164479D01*
X0160300Y0164479D01*
X0160392Y0164479D02*
X0161928Y0164479D01*
X0161928Y0164777D02*
X0159631Y0164777D01*
X0158613Y0164777D01*
X0158841Y0164180D02*
X0156936Y0164180D01*
X0156790Y0163882D02*
X0158404Y0163882D01*
X0158227Y0163583D02*
X0156720Y0163583D01*
X0156693Y0163285D02*
X0158221Y0163285D01*
X0158291Y0162986D02*
X0156709Y0162986D01*
X0156779Y0162688D02*
X0158765Y0162688D01*
X0159395Y0162688D02*
X0161928Y0162688D01*
X0161928Y0162986D02*
X0160068Y0162986D01*
X0160279Y0163285D02*
X0161928Y0163285D01*
X0161928Y0163583D02*
X0160351Y0163583D01*
X0160392Y0163882D02*
X0161928Y0163882D01*
X0161928Y0164180D02*
X0160392Y0164180D01*
X0160247Y0165374D02*
X0161928Y0165374D01*
X0161928Y0165076D02*
X0159574Y0165076D01*
X0159188Y0165076D01*
X0159102Y0164180D02*
X0158841Y0164180D01*
X0160384Y0165673D02*
X0161928Y0165673D01*
X0161918Y0165971D02*
X0160353Y0165971D01*
X0160190Y0166270D02*
X0161868Y0166270D01*
X0161759Y0166568D02*
X0157146Y0166568D01*
X0157417Y0166867D02*
X0161561Y0166867D01*
X0161188Y0167165D02*
X0157840Y0167165D01*
X0158892Y0167464D02*
X0160003Y0167464D01*
X0162755Y0167091D02*
X0162755Y0161776D01*
X0164290Y0161776D01*
X0164290Y0164650D01*
X0164369Y0165004D01*
X0164605Y0165555D01*
X0164841Y0165791D01*
X0165077Y0165949D01*
X0165392Y0166028D01*
X0165786Y0166067D01*
X0166219Y0166067D01*
X0166298Y0166028D01*
X0166337Y0166028D01*
X0166337Y0167445D01*
X0166298Y0167484D01*
X0165747Y0167484D01*
X0165196Y0167327D01*
X0164723Y0167012D01*
X0164526Y0166815D01*
X0164369Y0166579D01*
X0164251Y0166303D01*
X0164211Y0166303D01*
X0164211Y0167366D01*
X0164054Y0167327D01*
X0163857Y0167287D01*
X0163699Y0167248D01*
X0163503Y0167209D01*
X0163306Y0167209D01*
X0163148Y0167169D01*
X0162755Y0167091D01*
X0162755Y0166867D02*
X0164211Y0166867D01*
X0164211Y0167165D02*
X0163128Y0167165D01*
X0162755Y0166568D02*
X0164211Y0166568D01*
X0164364Y0166568D02*
X0166337Y0166568D01*
X0166337Y0166270D02*
X0162755Y0166270D01*
X0162755Y0165971D02*
X0165167Y0165971D01*
X0164723Y0165673D02*
X0162755Y0165673D01*
X0162755Y0165374D02*
X0164527Y0165374D01*
X0164400Y0165076D02*
X0162755Y0165076D01*
X0162755Y0164777D02*
X0164318Y0164777D01*
X0164290Y0164479D02*
X0162755Y0164479D01*
X0162755Y0164180D02*
X0164290Y0164180D01*
X0164290Y0163882D02*
X0162755Y0163882D01*
X0162755Y0163583D02*
X0164290Y0163583D01*
X0164290Y0163285D02*
X0162755Y0163285D01*
X0162755Y0162986D02*
X0164290Y0162986D01*
X0164290Y0162688D02*
X0162755Y0162688D01*
X0162755Y0162389D02*
X0164290Y0162389D01*
X0164290Y0162091D02*
X0162755Y0162091D01*
X0162755Y0161792D02*
X0164290Y0161792D01*
X0162085Y0161792D02*
X0160550Y0161792D01*
X0160471Y0162091D02*
X0161987Y0162091D01*
X0161928Y0162389D02*
X0156901Y0162389D01*
X0157164Y0162091D02*
X0160215Y0162091D01*
X0159655Y0161792D02*
X0157643Y0161792D01*
X0155916Y0162986D02*
X0155842Y0162986D01*
X0155494Y0162389D02*
X0152201Y0162389D01*
X0152489Y0162091D02*
X0155162Y0162091D01*
X0154616Y0161792D02*
X0153020Y0161792D01*
X0147226Y0165374D02*
X0144968Y0165374D01*
X0144925Y0165673D02*
X0146584Y0165673D01*
X0146459Y0165971D02*
X0144960Y0165971D01*
X0145017Y0166270D02*
X0146543Y0166270D01*
X0164578Y0166867D02*
X0166337Y0166867D01*
X0166337Y0167165D02*
X0164953Y0167165D01*
X0165675Y0167464D02*
X0166318Y0167464D01*
X0166967Y0167464D02*
X0168463Y0167464D01*
X0168463Y0167762D02*
X0166967Y0167762D01*
X0166967Y0168061D02*
X0168463Y0168061D01*
X0168463Y0168359D02*
X0166967Y0168359D01*
X0166967Y0168626D02*
X0166967Y0161776D01*
X0168463Y0161776D01*
X0168463Y0163705D01*
X0169054Y0164295D01*
X0170589Y0161776D01*
X0172440Y0161776D01*
X0170117Y0165319D01*
X0172203Y0167366D01*
X0170392Y0167366D01*
X0168463Y0165358D01*
X0168463Y0169492D01*
X0166967Y0168626D01*
X0167022Y0168658D02*
X0168463Y0168658D01*
X0168463Y0168956D02*
X0167538Y0168956D01*
X0168053Y0169255D02*
X0168463Y0169255D01*
X0168463Y0167165D02*
X0166967Y0167165D01*
X0166967Y0166867D02*
X0168463Y0166867D01*
X0168463Y0166568D02*
X0166967Y0166568D01*
X0166967Y0166270D02*
X0168463Y0166270D01*
X0168463Y0165971D02*
X0166967Y0165971D01*
X0166967Y0165673D02*
X0168463Y0165673D01*
X0168463Y0165374D02*
X0166967Y0165374D01*
X0166967Y0165076D02*
X0170276Y0165076D01*
X0170173Y0165374D02*
X0168479Y0165374D01*
X0168765Y0165673D02*
X0170477Y0165673D01*
X0170782Y0165971D02*
X0169052Y0165971D01*
X0169339Y0166270D02*
X0171086Y0166270D01*
X0171390Y0166568D02*
X0169626Y0166568D01*
X0169913Y0166867D02*
X0171694Y0166867D01*
X0171999Y0167165D02*
X0170199Y0167165D01*
X0171888Y0166343D02*
X0172125Y0166579D01*
X0172282Y0166697D01*
X0172400Y0166854D01*
X0172636Y0167091D01*
X0172794Y0167209D01*
X0172912Y0167366D01*
X0173385Y0167366D01*
X0173385Y0167799D01*
X0173424Y0168154D01*
X0173503Y0168469D01*
X0173660Y0168744D01*
X0173857Y0168980D01*
X0174093Y0169217D01*
X0174408Y0169335D01*
X0174802Y0169453D01*
X0175235Y0169492D01*
X0175550Y0169492D01*
X0175668Y0169453D01*
X0176062Y0169453D01*
X0176062Y0168311D01*
X0175353Y0168311D01*
X0175117Y0168232D01*
X0175038Y0168193D01*
X0174999Y0168075D01*
X0174959Y0167996D01*
X0174920Y0167839D01*
X0174920Y0167366D01*
X0175983Y0167366D01*
X0175983Y0166343D01*
X0174920Y0166343D01*
X0174920Y0161776D01*
X0173385Y0161776D01*
X0173385Y0166343D01*
X0171888Y0166343D01*
X0172114Y0166568D02*
X0175983Y0166568D01*
X0175983Y0166867D02*
X0172413Y0166867D01*
X0172736Y0167165D02*
X0175983Y0167165D01*
X0176416Y0167165D02*
X0177951Y0167165D01*
X0177951Y0167366D02*
X0177951Y0163902D01*
X0177991Y0163626D01*
X0178070Y0163390D01*
X0178148Y0163193D01*
X0178306Y0163035D01*
X0178463Y0162917D01*
X0178660Y0162878D01*
X0178936Y0162839D01*
X0179211Y0162878D01*
X0179448Y0162917D01*
X0179644Y0163035D01*
X0179841Y0163232D01*
X0179959Y0163429D01*
X0180038Y0163705D01*
X0180077Y0164059D01*
X0180117Y0164453D01*
X0180117Y0167366D01*
X0181613Y0167366D01*
X0181613Y0161776D01*
X0180156Y0161776D01*
X0180156Y0162563D01*
X0179999Y0162327D01*
X0179802Y0162169D01*
X0179605Y0161972D01*
X0179408Y0161854D01*
X0178936Y0161697D01*
X0178699Y0161657D01*
X0178424Y0161618D01*
X0177873Y0161697D01*
X0177440Y0161815D01*
X0177085Y0162012D01*
X0176810Y0162248D01*
X0176613Y0162602D01*
X0176495Y0162996D01*
X0176416Y0163429D01*
X0176416Y0167366D01*
X0177951Y0167366D01*
X0177951Y0166867D02*
X0176416Y0166867D01*
X0176416Y0166568D02*
X0177951Y0166568D01*
X0177951Y0166270D02*
X0176416Y0166270D01*
X0176416Y0165971D02*
X0177951Y0165971D01*
X0177951Y0165673D02*
X0176416Y0165673D01*
X0176416Y0165374D02*
X0177951Y0165374D01*
X0177951Y0165076D02*
X0176416Y0165076D01*
X0176416Y0164777D02*
X0177951Y0164777D01*
X0177951Y0164479D02*
X0176416Y0164479D01*
X0176416Y0164180D02*
X0177951Y0164180D01*
X0177954Y0163882D02*
X0176416Y0163882D01*
X0176416Y0163583D02*
X0178005Y0163583D01*
X0178112Y0163285D02*
X0176442Y0163285D01*
X0176498Y0162986D02*
X0178371Y0162986D01*
X0179562Y0162986D02*
X0181613Y0162986D01*
X0181613Y0162688D02*
X0176587Y0162688D01*
X0176731Y0162389D02*
X0180040Y0162389D01*
X0180156Y0162389D02*
X0181613Y0162389D01*
X0181613Y0162091D02*
X0180156Y0162091D01*
X0180156Y0161792D02*
X0181613Y0161792D01*
X0182440Y0161792D02*
X0183975Y0161792D01*
X0183975Y0161776D02*
X0182440Y0161776D01*
X0182440Y0166657D01*
X0182479Y0167366D01*
X0183896Y0167366D01*
X0183896Y0166579D01*
X0183936Y0166579D01*
X0184093Y0166815D01*
X0184251Y0167012D01*
X0184487Y0167169D01*
X0184684Y0167287D01*
X0185156Y0167445D01*
X0185629Y0167524D01*
X0186180Y0167445D01*
X0186652Y0167327D01*
X0187007Y0167130D01*
X0187243Y0166894D01*
X0187440Y0166539D01*
X0187597Y0166146D01*
X0187636Y0165713D01*
X0187676Y0165201D01*
X0187676Y0161776D01*
X0186140Y0161776D01*
X0186140Y0165240D01*
X0186101Y0165516D01*
X0186022Y0165752D01*
X0185904Y0165949D01*
X0185786Y0166106D01*
X0185629Y0166224D01*
X0185156Y0166303D01*
X0184605Y0166224D01*
X0184408Y0166106D01*
X0184251Y0165909D01*
X0184133Y0165713D01*
X0184054Y0165437D01*
X0183975Y0165083D01*
X0183975Y0161776D01*
X0183975Y0162091D02*
X0182440Y0162091D01*
X0182440Y0162389D02*
X0183975Y0162389D01*
X0183975Y0162688D02*
X0182440Y0162688D01*
X0182440Y0162986D02*
X0183975Y0162986D01*
X0183975Y0163285D02*
X0182440Y0163285D01*
X0182440Y0163583D02*
X0183975Y0163583D01*
X0183975Y0163882D02*
X0182440Y0163882D01*
X0182440Y0164180D02*
X0183975Y0164180D01*
X0183975Y0164479D02*
X0182440Y0164479D01*
X0182440Y0164777D02*
X0183975Y0164777D01*
X0183975Y0165076D02*
X0182440Y0165076D01*
X0182440Y0165374D02*
X0184040Y0165374D01*
X0184121Y0165673D02*
X0182440Y0165673D01*
X0182440Y0165971D02*
X0184300Y0165971D01*
X0184923Y0166270D02*
X0182440Y0166270D01*
X0182440Y0166568D02*
X0187424Y0166568D01*
X0187547Y0166270D02*
X0185356Y0166270D01*
X0185887Y0165971D02*
X0187613Y0165971D01*
X0187640Y0165673D02*
X0186049Y0165673D01*
X0186121Y0165374D02*
X0187662Y0165374D01*
X0187676Y0165076D02*
X0186140Y0165076D01*
X0186140Y0164777D02*
X0187676Y0164777D01*
X0187676Y0164479D02*
X0186140Y0164479D01*
X0186140Y0164180D02*
X0187676Y0164180D01*
X0187676Y0163882D02*
X0186140Y0163882D01*
X0186140Y0163583D02*
X0187676Y0163583D01*
X0187676Y0163285D02*
X0186140Y0163285D01*
X0186140Y0162986D02*
X0187676Y0162986D01*
X0187676Y0162688D02*
X0186140Y0162688D01*
X0186140Y0162389D02*
X0187676Y0162389D01*
X0187676Y0162091D02*
X0186140Y0162091D01*
X0186140Y0161792D02*
X0187676Y0161792D01*
X0181613Y0163285D02*
X0179873Y0163285D01*
X0180003Y0163583D02*
X0181613Y0163583D01*
X0181613Y0163882D02*
X0180058Y0163882D01*
X0180090Y0164180D02*
X0181613Y0164180D01*
X0181613Y0164479D02*
X0180117Y0164479D01*
X0180117Y0164777D02*
X0181613Y0164777D01*
X0181613Y0165076D02*
X0180117Y0165076D01*
X0180117Y0165374D02*
X0181613Y0165374D01*
X0181613Y0165673D02*
X0180117Y0165673D01*
X0180117Y0165971D02*
X0181613Y0165971D01*
X0181613Y0166270D02*
X0180117Y0166270D01*
X0180117Y0166568D02*
X0181613Y0166568D01*
X0181613Y0166867D02*
X0180117Y0166867D01*
X0180117Y0167165D02*
X0181613Y0167165D01*
X0182468Y0167165D02*
X0183896Y0167165D01*
X0183896Y0166867D02*
X0182451Y0166867D01*
X0184135Y0166867D02*
X0187258Y0166867D01*
X0186943Y0167165D02*
X0184481Y0167165D01*
X0185270Y0167464D02*
X0186047Y0167464D01*
X0179723Y0162091D02*
X0176993Y0162091D01*
X0177523Y0161792D02*
X0179221Y0161792D01*
X0174920Y0161792D02*
X0173385Y0161792D01*
X0173385Y0162091D02*
X0174920Y0162091D01*
X0174920Y0162389D02*
X0173385Y0162389D01*
X0173385Y0162688D02*
X0174920Y0162688D01*
X0174920Y0162986D02*
X0173385Y0162986D01*
X0173385Y0163285D02*
X0174920Y0163285D01*
X0174920Y0163583D02*
X0173385Y0163583D01*
X0173385Y0163882D02*
X0174920Y0163882D01*
X0174920Y0164180D02*
X0173385Y0164180D01*
X0173385Y0164479D02*
X0174920Y0164479D01*
X0174920Y0164777D02*
X0173385Y0164777D01*
X0173385Y0165076D02*
X0174920Y0165076D01*
X0174920Y0165374D02*
X0173385Y0165374D01*
X0173385Y0165673D02*
X0174920Y0165673D01*
X0174920Y0165971D02*
X0173385Y0165971D01*
X0173385Y0166270D02*
X0174920Y0166270D01*
X0174920Y0167464D02*
X0173385Y0167464D01*
X0173385Y0167762D02*
X0174920Y0167762D01*
X0174992Y0168061D02*
X0173414Y0168061D01*
X0173475Y0168359D02*
X0176062Y0168359D01*
X0176062Y0168658D02*
X0173611Y0168658D01*
X0173837Y0168956D02*
X0176062Y0168956D01*
X0176062Y0169255D02*
X0174195Y0169255D01*
X0170472Y0164777D02*
X0166967Y0164777D01*
X0166967Y0164479D02*
X0170668Y0164479D01*
X0170863Y0164180D02*
X0169124Y0164180D01*
X0168939Y0164180D02*
X0166967Y0164180D01*
X0166967Y0163882D02*
X0168640Y0163882D01*
X0168463Y0163583D02*
X0166967Y0163583D01*
X0166967Y0163285D02*
X0168463Y0163285D01*
X0168463Y0162986D02*
X0166967Y0162986D01*
X0166967Y0162688D02*
X0168463Y0162688D01*
X0168463Y0162389D02*
X0166967Y0162389D01*
X0166967Y0162091D02*
X0168463Y0162091D01*
X0168463Y0161792D02*
X0166967Y0161792D01*
X0169670Y0163285D02*
X0171450Y0163285D01*
X0171255Y0163583D02*
X0169488Y0163583D01*
X0169306Y0163882D02*
X0171059Y0163882D01*
X0171646Y0162986D02*
X0169852Y0162986D01*
X0170033Y0162688D02*
X0171842Y0162688D01*
X0172037Y0162389D02*
X0170215Y0162389D01*
X0170397Y0162091D02*
X0172233Y0162091D01*
X0172429Y0161792D02*
X0170579Y0161792D01*
D205*
X0184546Y0107150D03*
X0184388Y0106835D03*
X0184231Y0106520D03*
X0184231Y0106362D03*
X0182341Y0101638D03*
X0182341Y0101480D03*
X0182184Y0101165D03*
X0182026Y0100850D03*
D206*
X0182105Y0101008D03*
X0182262Y0101323D03*
X0182420Y0101795D03*
X0184152Y0106205D03*
X0184310Y0106677D03*
X0184467Y0106992D03*
D207*
X0179743Y0106047D03*
D208*
X0184152Y0106047D03*
D209*
X0187223Y0103213D03*
X0188325Y0106047D03*
D210*
X0186042Y0104787D03*
X0183995Y0105575D03*
X0183365Y0103055D03*
X0181003Y0103685D03*
X0178325Y0105260D03*
X0178325Y0105417D03*
X0178483Y0105890D03*
X0188247Y0102740D03*
X0188247Y0102583D03*
X0188089Y0102268D03*
D211*
X0180845Y0103528D03*
X0180688Y0105890D03*
D212*
X0183995Y0105890D03*
X0177853Y0102898D03*
X0177853Y0102740D03*
X0188562Y0104945D03*
X0188719Y0105102D03*
X0188719Y0105260D03*
D213*
X0188640Y0105890D03*
D214*
X0188168Y0102425D03*
X0186121Y0103055D03*
X0184388Y0102110D03*
X0183444Y0103213D03*
X0178404Y0105575D03*
X0178404Y0105732D03*
D215*
X0178168Y0104630D03*
X0178168Y0104472D03*
X0183995Y0105732D03*
X0184467Y0101953D03*
X0187774Y0101953D03*
X0188247Y0102898D03*
D216*
X0188640Y0105732D03*
X0177774Y0102110D03*
X0177774Y0101953D03*
D217*
X0180373Y0101953D03*
X0180530Y0103055D03*
X0180530Y0105417D03*
X0180530Y0105575D03*
X0183837Y0104945D03*
X0183837Y0104787D03*
X0183680Y0103843D03*
X0183995Y0102740D03*
D218*
X0177774Y0102583D03*
X0177774Y0102425D03*
X0177774Y0102268D03*
X0188483Y0104787D03*
X0188798Y0105417D03*
X0188798Y0105575D03*
D219*
X0186121Y0104945D03*
X0183916Y0105260D03*
X0183916Y0105417D03*
X0182026Y0104630D03*
X0182026Y0104472D03*
X0184231Y0102268D03*
D220*
X0181081Y0103843D03*
X0178247Y0104787D03*
X0178247Y0104945D03*
X0178247Y0105102D03*
X0188010Y0102110D03*
D221*
X0186121Y0102898D03*
X0184073Y0102583D03*
X0183601Y0103528D03*
X0183601Y0103685D03*
X0183916Y0105102D03*
X0182026Y0104945D03*
X0180609Y0103213D03*
D222*
X0180373Y0102583D03*
X0180373Y0102425D03*
X0180373Y0102268D03*
X0180373Y0104315D03*
X0180373Y0104472D03*
X0180373Y0104630D03*
X0180373Y0104787D03*
X0180373Y0104945D03*
D223*
X0187302Y0104315D03*
X0187459Y0104630D03*
D224*
X0187381Y0104472D03*
X0187223Y0104157D03*
X0187223Y0104000D03*
X0187223Y0103843D03*
X0187223Y0103685D03*
D225*
X0188168Y0103055D03*
X0183286Y0102898D03*
X0181239Y0104000D03*
X0178089Y0104000D03*
X0178089Y0103843D03*
X0178089Y0104157D03*
X0178089Y0104315D03*
D226*
X0178010Y0103685D03*
X0178010Y0103528D03*
D227*
X0187144Y0103528D03*
D228*
X0177932Y0103370D03*
X0177932Y0103213D03*
X0177932Y0103055D03*
D229*
X0187223Y0103370D03*
M02*
