G75*
%MOIN*%
%OFA0B0*%
%FSLAX25Y25*%
%IPPOS*%
%LPD*%
%AMOC8*
5,1,8,0,0,1.08239X$1,22.5*
%
%ADD10R,0.07874X0.04724*%
%ADD11R,0.05315X0.02362*%
%ADD12R,0.04331X0.03937*%
%ADD13R,0.03937X0.04331*%
%ADD14C,0.01181*%
%ADD15C,0.07400*%
%ADD16C,0.03937*%
%ADD17R,0.12600X0.05118*%
%ADD18C,0.01378*%
%ADD19R,0.10630X0.10630*%
%ADD20C,0.01000*%
%ADD21C,0.02000*%
%ADD22C,0.02900*%
%ADD23C,0.01500*%
D10*
X0118865Y0118976D03*
X0118865Y0141024D03*
D11*
X0133333Y0135906D03*
X0133333Y0131969D03*
X0133333Y0128031D03*
X0133333Y0124094D03*
D12*
X0166087Y0109700D03*
X0172780Y0109700D03*
X0126180Y0147500D03*
X0119487Y0147500D03*
X0169987Y0150500D03*
X0176680Y0150500D03*
X0176680Y0157000D03*
X0169987Y0157000D03*
D13*
X0186733Y0137346D03*
X0192733Y0137346D03*
X0192733Y0130654D03*
X0186733Y0130654D03*
X0178833Y0123346D03*
X0178833Y0116654D03*
X0152933Y0114246D03*
X0152933Y0107554D03*
X0141933Y0107054D03*
X0135033Y0107054D03*
X0135033Y0113746D03*
X0141933Y0113746D03*
D14*
X0124408Y0151622D02*
X0124408Y0154378D01*
X0127164Y0154378D01*
X0127164Y0151622D01*
X0124408Y0151622D01*
X0124408Y0152744D02*
X0127164Y0152744D01*
X0127164Y0153866D02*
X0124408Y0153866D01*
X0117503Y0154378D02*
X0117503Y0151622D01*
X0117503Y0154378D02*
X0120259Y0154378D01*
X0120259Y0151622D01*
X0117503Y0151622D01*
X0117503Y0152744D02*
X0120259Y0152744D01*
X0120259Y0153866D02*
X0117503Y0153866D01*
D15*
X0133333Y0084840D03*
X0143333Y0084840D03*
X0153333Y0084840D03*
X0163333Y0084840D03*
X0173333Y0084840D03*
X0183333Y0084840D03*
X0193333Y0084840D03*
D16*
X0208333Y0090000D03*
X0131233Y0175100D03*
D17*
X0204333Y0148807D03*
X0204333Y0112193D03*
D18*
X0173576Y0131187D02*
X0172198Y0131187D01*
X0172198Y0133746D02*
X0173576Y0133746D01*
X0173576Y0136306D02*
X0172198Y0136306D01*
X0172198Y0138865D02*
X0173576Y0138865D01*
X0169198Y0141857D02*
X0169198Y0143235D01*
X0166639Y0143235D02*
X0166639Y0141857D01*
X0164080Y0141857D02*
X0164080Y0143235D01*
X0161521Y0143235D02*
X0161521Y0141857D01*
X0158509Y0138865D02*
X0157131Y0138865D01*
X0157131Y0136306D02*
X0158509Y0136306D01*
X0158509Y0133746D02*
X0157131Y0133746D01*
X0157131Y0131187D02*
X0158509Y0131187D01*
X0161521Y0128180D02*
X0161521Y0126802D01*
X0164080Y0126802D02*
X0164080Y0128180D01*
X0166639Y0128180D02*
X0166639Y0126802D01*
X0169198Y0126802D02*
X0169198Y0128180D01*
D19*
X0165359Y0135026D03*
D20*
X0115433Y0114914D02*
X0115433Y0082100D01*
X0128897Y0082100D01*
X0128886Y0082115D01*
X0128514Y0082844D01*
X0128261Y0083622D01*
X0128148Y0084340D01*
X0132833Y0084340D01*
X0132833Y0085340D01*
X0128148Y0085340D01*
X0128261Y0086058D01*
X0128514Y0086836D01*
X0128886Y0087565D01*
X0129367Y0088228D01*
X0129946Y0088806D01*
X0130608Y0089287D01*
X0131337Y0089659D01*
X0132116Y0089912D01*
X0132833Y0090026D01*
X0132833Y0085340D01*
X0133833Y0085340D01*
X0133833Y0090026D01*
X0134551Y0089912D01*
X0135329Y0089659D01*
X0136059Y0089287D01*
X0136721Y0088806D01*
X0137300Y0088228D01*
X0137781Y0087565D01*
X0138152Y0086836D01*
X0138224Y0086616D01*
X0138755Y0087899D01*
X0139983Y0089127D01*
X0139983Y0097995D01*
X0139763Y0098216D01*
X0139283Y0099373D01*
X0139283Y0100627D01*
X0139763Y0101784D01*
X0139983Y0102005D01*
X0139983Y0103188D01*
X0139261Y0103188D01*
X0138483Y0103966D01*
X0137706Y0103188D01*
X0132361Y0103188D01*
X0131365Y0104184D01*
X0131365Y0107257D01*
X0125792Y0112830D01*
X0125103Y0113519D01*
X0124730Y0114420D01*
X0124730Y0131513D01*
X0124730Y0139359D01*
X0124730Y0140334D01*
X0125103Y0141234D01*
X0127700Y0143831D01*
X0124502Y0143831D01*
X0124502Y0137957D01*
X0123506Y0136961D01*
X0115433Y0136961D01*
X0115433Y0123039D01*
X0123506Y0123039D01*
X0124502Y0122043D01*
X0124502Y0115910D01*
X0123506Y0114914D01*
X0115433Y0114914D01*
X0115433Y0113949D02*
X0124925Y0113949D01*
X0124730Y0114948D02*
X0123540Y0114948D01*
X0124502Y0115946D02*
X0124730Y0115946D01*
X0124730Y0116945D02*
X0124502Y0116945D01*
X0124502Y0117943D02*
X0124730Y0117943D01*
X0124730Y0118942D02*
X0124502Y0118942D01*
X0124502Y0119940D02*
X0124730Y0119940D01*
X0124730Y0120939D02*
X0124502Y0120939D01*
X0124502Y0121937D02*
X0124730Y0121937D01*
X0124730Y0122936D02*
X0123609Y0122936D01*
X0124730Y0123934D02*
X0115433Y0123934D01*
X0115433Y0124933D02*
X0124730Y0124933D01*
X0124730Y0125932D02*
X0115433Y0125932D01*
X0115433Y0126930D02*
X0124730Y0126930D01*
X0124730Y0127929D02*
X0115433Y0127929D01*
X0115433Y0128927D02*
X0124730Y0128927D01*
X0124730Y0129926D02*
X0115433Y0129926D01*
X0115433Y0130924D02*
X0124730Y0130924D01*
X0124730Y0131923D02*
X0115433Y0131923D01*
X0115433Y0132921D02*
X0124730Y0132921D01*
X0124730Y0133920D02*
X0115433Y0133920D01*
X0115433Y0134918D02*
X0124730Y0134918D01*
X0124730Y0135917D02*
X0115433Y0135917D01*
X0115433Y0136915D02*
X0124730Y0136915D01*
X0124730Y0137914D02*
X0124458Y0137914D01*
X0124502Y0138912D02*
X0124730Y0138912D01*
X0124730Y0139911D02*
X0124502Y0139911D01*
X0124502Y0140909D02*
X0124968Y0140909D01*
X0124502Y0141908D02*
X0125776Y0141908D01*
X0126775Y0142906D02*
X0124502Y0142906D01*
X0129630Y0138832D02*
X0133410Y0142612D01*
X0133783Y0143513D01*
X0133783Y0149039D01*
X0139295Y0154550D01*
X0166122Y0154550D01*
X0166122Y0154327D01*
X0166699Y0153750D01*
X0166122Y0153173D01*
X0166122Y0148594D01*
X0165439Y0147911D01*
X0164439Y0146911D01*
X0164439Y0144413D01*
X0164250Y0144224D01*
X0164250Y0141841D01*
X0163910Y0141841D01*
X0163910Y0144224D01*
X0163721Y0144413D01*
X0163721Y0145911D01*
X0160721Y0148911D01*
X0159432Y0150200D01*
X0148422Y0150200D01*
X0147133Y0148911D01*
X0144233Y0146011D01*
X0144233Y0135055D01*
X0143763Y0134584D01*
X0143283Y0133427D01*
X0143283Y0132173D01*
X0143763Y0131016D01*
X0144000Y0130778D01*
X0142297Y0129075D01*
X0142004Y0129784D01*
X0141118Y0130670D01*
X0139960Y0131150D01*
X0138707Y0131150D01*
X0137691Y0130729D01*
X0137691Y0133854D01*
X0137391Y0134154D01*
X0137491Y0134527D01*
X0137491Y0135815D01*
X0133424Y0135815D01*
X0133424Y0135996D01*
X0137491Y0135996D01*
X0137491Y0137284D01*
X0137389Y0137666D01*
X0137191Y0138008D01*
X0136912Y0138287D01*
X0136570Y0138484D01*
X0136188Y0138587D01*
X0133424Y0138587D01*
X0133424Y0135996D01*
X0133243Y0135996D01*
X0133243Y0138587D01*
X0130478Y0138587D01*
X0130097Y0138484D01*
X0129755Y0138287D01*
X0129630Y0138162D01*
X0129630Y0138832D01*
X0129710Y0138912D02*
X0144233Y0138912D01*
X0144233Y0137914D02*
X0137245Y0137914D01*
X0137491Y0136915D02*
X0144233Y0136915D01*
X0144233Y0135917D02*
X0133424Y0135917D01*
X0133424Y0136915D02*
X0133243Y0136915D01*
X0133243Y0137914D02*
X0133424Y0137914D01*
X0130709Y0139911D02*
X0144233Y0139911D01*
X0144233Y0140909D02*
X0131707Y0140909D01*
X0132706Y0141908D02*
X0144233Y0141908D01*
X0144233Y0142906D02*
X0133532Y0142906D01*
X0133783Y0143905D02*
X0144233Y0143905D01*
X0144233Y0144903D02*
X0133783Y0144903D01*
X0133783Y0145902D02*
X0144233Y0145902D01*
X0145122Y0146900D02*
X0133783Y0146900D01*
X0133783Y0147899D02*
X0146121Y0147899D01*
X0147119Y0148897D02*
X0133783Y0148897D01*
X0134640Y0149896D02*
X0148118Y0149896D01*
X0149333Y0148000D02*
X0158521Y0148000D01*
X0161521Y0145000D01*
X0161521Y0142546D01*
X0163910Y0142906D02*
X0164250Y0142906D01*
X0164080Y0142546D02*
X0164080Y0136306D01*
X0165359Y0135026D01*
X0169333Y0133746D02*
X0172887Y0133746D01*
X0172174Y0133576D02*
X0172174Y0133917D01*
X0174565Y0133917D01*
X0174754Y0134106D01*
X0178617Y0134106D01*
X0183065Y0129657D01*
X0183065Y0127784D01*
X0183333Y0127516D01*
X0183333Y0097000D01*
X0189333Y0097000D01*
X0190333Y0096000D01*
X0199333Y0088200D01*
X0199333Y0082100D01*
X0198043Y0082100D01*
X0198733Y0083766D01*
X0198733Y0085914D01*
X0197911Y0087899D01*
X0196392Y0089418D01*
X0194407Y0090240D01*
X0192259Y0090240D01*
X0191330Y0089855D01*
X0187273Y0093911D01*
X0185985Y0095200D01*
X0177932Y0095200D01*
X0167100Y0106031D01*
X0168956Y0106031D01*
X0169433Y0106508D01*
X0169910Y0106031D01*
X0175649Y0106031D01*
X0176645Y0107027D01*
X0176645Y0112373D01*
X0175649Y0113368D01*
X0174928Y0113368D01*
X0174930Y0113373D01*
X0174930Y0114627D01*
X0174450Y0115784D01*
X0173564Y0116670D01*
X0172483Y0117118D01*
X0172483Y0118027D01*
X0172004Y0119184D01*
X0171398Y0119790D01*
X0171398Y0125623D01*
X0171587Y0125812D01*
X0171587Y0128506D01*
X0171595Y0128511D01*
X0171875Y0128790D01*
X0171879Y0128798D01*
X0174165Y0128798D01*
X0175956Y0127007D01*
X0175165Y0126216D01*
X0175165Y0120477D01*
X0175783Y0119859D01*
X0175665Y0119740D01*
X0175467Y0119398D01*
X0175365Y0119016D01*
X0175365Y0117138D01*
X0178349Y0117138D01*
X0178349Y0116169D01*
X0179318Y0116169D01*
X0179318Y0117138D01*
X0182302Y0117138D01*
X0182302Y0119016D01*
X0182200Y0119398D01*
X0182002Y0119740D01*
X0181883Y0119859D01*
X0182502Y0120477D01*
X0182502Y0126216D01*
X0181506Y0127212D01*
X0181087Y0127212D01*
X0181087Y0128099D01*
X0179798Y0129387D01*
X0177087Y0132099D01*
X0175798Y0133387D01*
X0174754Y0133387D01*
X0174565Y0133576D01*
X0172174Y0133576D01*
X0174568Y0133920D02*
X0178802Y0133920D01*
X0179801Y0132921D02*
X0176264Y0132921D01*
X0177263Y0131923D02*
X0180799Y0131923D01*
X0181798Y0130924D02*
X0178261Y0130924D01*
X0179260Y0129926D02*
X0182796Y0129926D01*
X0183065Y0128927D02*
X0180258Y0128927D01*
X0181087Y0127929D02*
X0183065Y0127929D01*
X0183333Y0126930D02*
X0181788Y0126930D01*
X0182502Y0125932D02*
X0183333Y0125932D01*
X0183333Y0124933D02*
X0182502Y0124933D01*
X0182502Y0123934D02*
X0183333Y0123934D01*
X0183333Y0122936D02*
X0182502Y0122936D01*
X0182502Y0121937D02*
X0183333Y0121937D01*
X0183333Y0120939D02*
X0182502Y0120939D01*
X0181965Y0119940D02*
X0183333Y0119940D01*
X0183333Y0118942D02*
X0182302Y0118942D01*
X0182302Y0117943D02*
X0183333Y0117943D01*
X0183333Y0116945D02*
X0179318Y0116945D01*
X0179318Y0116169D02*
X0182302Y0116169D01*
X0182302Y0114291D01*
X0182200Y0113909D01*
X0182002Y0113567D01*
X0181723Y0113288D01*
X0181381Y0113090D01*
X0180999Y0112988D01*
X0179318Y0112988D01*
X0179318Y0116169D01*
X0179318Y0115946D02*
X0178349Y0115946D01*
X0178349Y0116169D02*
X0178349Y0112988D01*
X0176667Y0112988D01*
X0176286Y0113090D01*
X0175944Y0113288D01*
X0175665Y0113567D01*
X0175467Y0113909D01*
X0175365Y0114291D01*
X0175365Y0116169D01*
X0178349Y0116169D01*
X0178349Y0116945D02*
X0172901Y0116945D01*
X0172483Y0117943D02*
X0175365Y0117943D01*
X0175365Y0118942D02*
X0172104Y0118942D01*
X0171398Y0119940D02*
X0175701Y0119940D01*
X0175165Y0120939D02*
X0171398Y0120939D01*
X0171398Y0121937D02*
X0175165Y0121937D01*
X0175165Y0122936D02*
X0171398Y0122936D01*
X0171398Y0123934D02*
X0175165Y0123934D01*
X0175165Y0124933D02*
X0171398Y0124933D01*
X0171587Y0125932D02*
X0175165Y0125932D01*
X0175879Y0126930D02*
X0171587Y0126930D01*
X0171587Y0127929D02*
X0175034Y0127929D01*
X0174887Y0131187D02*
X0178887Y0127187D01*
X0178887Y0123400D01*
X0178833Y0123346D01*
X0185180Y0130654D02*
X0179528Y0136306D01*
X0172887Y0136306D01*
X0172174Y0138694D02*
X0172174Y0140538D01*
X0172072Y0140920D01*
X0171875Y0141262D01*
X0171595Y0141541D01*
X0171587Y0141546D01*
X0171587Y0141911D01*
X0171648Y0142058D01*
X0171648Y0146831D01*
X0172856Y0146831D01*
X0173475Y0147450D01*
X0173593Y0147331D01*
X0173935Y0147134D01*
X0174317Y0147031D01*
X0176196Y0147031D01*
X0176196Y0150016D01*
X0177164Y0150016D01*
X0177164Y0150984D01*
X0180345Y0150984D01*
X0180345Y0152666D01*
X0180243Y0153047D01*
X0180045Y0153390D01*
X0179826Y0153609D01*
X0180545Y0154327D01*
X0180545Y0159673D01*
X0179549Y0160668D01*
X0179191Y0160668D01*
X0179483Y0161373D01*
X0179483Y0162627D01*
X0179004Y0163784D01*
X0178118Y0164670D01*
X0176960Y0165150D01*
X0175707Y0165150D01*
X0174549Y0164670D01*
X0173663Y0163784D01*
X0173183Y0162627D01*
X0173183Y0161373D01*
X0173573Y0160432D01*
X0173333Y0160192D01*
X0172856Y0160668D01*
X0167117Y0160668D01*
X0166122Y0159673D01*
X0166122Y0159450D01*
X0137792Y0159450D01*
X0136892Y0159077D01*
X0136203Y0158388D01*
X0136203Y0158388D01*
X0129946Y0152131D01*
X0129455Y0151640D01*
X0129455Y0155327D01*
X0128113Y0156668D01*
X0125776Y0156668D01*
X0123483Y0158961D01*
X0123483Y0159627D01*
X0123004Y0160784D01*
X0122118Y0161670D01*
X0120960Y0162150D01*
X0119707Y0162150D01*
X0118549Y0161670D01*
X0117663Y0160784D01*
X0117183Y0159627D01*
X0117183Y0158373D01*
X0117663Y0157216D01*
X0118210Y0156668D01*
X0116554Y0156668D01*
X0115433Y0155548D01*
X0115433Y0164680D01*
X0116561Y0163734D01*
X0119676Y0162600D01*
X0122991Y0162600D01*
X0126106Y0163734D01*
X0128645Y0165865D01*
X0130303Y0168735D01*
X0130303Y0168735D01*
X0130778Y0171431D01*
X0131963Y0171431D01*
X0133311Y0171990D01*
X0134343Y0173022D01*
X0134902Y0174370D01*
X0134902Y0175830D01*
X0134343Y0177178D01*
X0133621Y0177900D01*
X0183333Y0177900D01*
X0183333Y0139965D01*
X0183265Y0139709D01*
X0183265Y0137831D01*
X0183333Y0137831D01*
X0183333Y0136862D01*
X0183265Y0136862D01*
X0183265Y0135680D01*
X0180439Y0138505D01*
X0178617Y0138505D01*
X0174754Y0138505D01*
X0174565Y0138694D01*
X0172174Y0138694D01*
X0172174Y0138912D02*
X0183265Y0138912D01*
X0183265Y0137914D02*
X0181031Y0137914D01*
X0180469Y0138865D02*
X0181987Y0137346D01*
X0186733Y0137346D01*
X0183333Y0136915D02*
X0182029Y0136915D01*
X0183028Y0135917D02*
X0183265Y0135917D01*
X0180469Y0138865D02*
X0172887Y0138865D01*
X0169333Y0138865D01*
X0172174Y0139911D02*
X0183319Y0139911D01*
X0183333Y0140909D02*
X0172075Y0140909D01*
X0171587Y0141908D02*
X0183333Y0141908D01*
X0183333Y0142906D02*
X0171648Y0142906D01*
X0171648Y0143905D02*
X0183333Y0143905D01*
X0183333Y0144903D02*
X0171648Y0144903D01*
X0171648Y0145902D02*
X0183333Y0145902D01*
X0183333Y0146900D02*
X0172925Y0146900D01*
X0176196Y0147899D02*
X0177164Y0147899D01*
X0177164Y0147031D02*
X0179043Y0147031D01*
X0179424Y0147134D01*
X0179766Y0147331D01*
X0180045Y0147610D01*
X0180243Y0147953D01*
X0180345Y0148334D01*
X0180345Y0150016D01*
X0177164Y0150016D01*
X0177164Y0147031D01*
X0177164Y0148897D02*
X0176196Y0148897D01*
X0176196Y0149896D02*
X0177164Y0149896D01*
X0177164Y0150894D02*
X0183333Y0150894D01*
X0183333Y0149896D02*
X0180345Y0149896D01*
X0180345Y0148897D02*
X0183333Y0148897D01*
X0183333Y0147899D02*
X0180212Y0147899D01*
X0180345Y0151893D02*
X0183333Y0151893D01*
X0183333Y0152891D02*
X0180285Y0152891D01*
X0180108Y0153890D02*
X0183333Y0153890D01*
X0183333Y0154888D02*
X0180545Y0154888D01*
X0180545Y0155887D02*
X0183333Y0155887D01*
X0183333Y0156885D02*
X0180545Y0156885D01*
X0180545Y0157884D02*
X0183333Y0157884D01*
X0183333Y0158882D02*
X0180545Y0158882D01*
X0180337Y0159881D02*
X0183333Y0159881D01*
X0183333Y0160879D02*
X0179279Y0160879D01*
X0179483Y0161878D02*
X0183333Y0161878D01*
X0183333Y0162876D02*
X0179380Y0162876D01*
X0178913Y0163875D02*
X0183333Y0163875D01*
X0183333Y0164873D02*
X0177628Y0164873D01*
X0175039Y0164873D02*
X0127464Y0164873D01*
X0128645Y0165865D02*
X0128645Y0165865D01*
X0128645Y0165865D01*
X0128649Y0165872D02*
X0183333Y0165872D01*
X0183333Y0166870D02*
X0129226Y0166870D01*
X0129802Y0167869D02*
X0183333Y0167869D01*
X0183333Y0168868D02*
X0130326Y0168868D01*
X0130502Y0169866D02*
X0183333Y0169866D01*
X0183333Y0170865D02*
X0130678Y0170865D01*
X0133005Y0171863D02*
X0183333Y0171863D01*
X0183333Y0172862D02*
X0134183Y0172862D01*
X0134690Y0173860D02*
X0183333Y0173860D01*
X0183333Y0174859D02*
X0134902Y0174859D01*
X0134890Y0175857D02*
X0183333Y0175857D01*
X0183333Y0176856D02*
X0134477Y0176856D01*
X0133667Y0177854D02*
X0183333Y0177854D01*
X0173754Y0163875D02*
X0126274Y0163875D01*
X0126106Y0163734D02*
X0126106Y0163734D01*
X0123750Y0162876D02*
X0173287Y0162876D01*
X0173183Y0161878D02*
X0121617Y0161878D01*
X0122909Y0160879D02*
X0173388Y0160879D01*
X0176333Y0162000D02*
X0176333Y0157346D01*
X0176680Y0157000D01*
X0166559Y0153890D02*
X0138634Y0153890D01*
X0137636Y0152891D02*
X0166122Y0152891D01*
X0166122Y0151893D02*
X0136637Y0151893D01*
X0135639Y0150894D02*
X0166122Y0150894D01*
X0166122Y0149896D02*
X0159736Y0149896D01*
X0160735Y0148897D02*
X0166122Y0148897D01*
X0165426Y0147899D02*
X0161733Y0147899D01*
X0162732Y0146900D02*
X0164439Y0146900D01*
X0164439Y0145902D02*
X0163721Y0145902D01*
X0163721Y0144903D02*
X0164439Y0144903D01*
X0164250Y0143905D02*
X0163910Y0143905D01*
X0163910Y0141908D02*
X0164250Y0141908D01*
X0166639Y0142546D02*
X0166639Y0146000D01*
X0167639Y0147000D01*
X0169198Y0147000D01*
X0157820Y0138865D02*
X0154333Y0138865D01*
X0152333Y0140865D01*
X0152333Y0145000D01*
X0150133Y0142745D02*
X0149663Y0143216D01*
X0149183Y0144373D01*
X0149183Y0144739D01*
X0148633Y0144189D01*
X0148633Y0135788D01*
X0149507Y0136150D01*
X0150172Y0136150D01*
X0151239Y0137217D01*
X0152054Y0138032D01*
X0151422Y0138665D01*
X0150133Y0139953D01*
X0150133Y0142745D01*
X0149972Y0142906D02*
X0148633Y0142906D01*
X0148633Y0141908D02*
X0150133Y0141908D01*
X0150133Y0140909D02*
X0148633Y0140909D01*
X0148633Y0139911D02*
X0150176Y0139911D01*
X0151174Y0138912D02*
X0148633Y0138912D01*
X0148633Y0137914D02*
X0151936Y0137914D01*
X0150937Y0136915D02*
X0148633Y0136915D01*
X0148633Y0135917D02*
X0148943Y0135917D01*
X0150133Y0133000D02*
X0153439Y0136306D01*
X0157820Y0136306D01*
X0157820Y0133746D02*
X0155580Y0133746D01*
X0153333Y0131500D01*
X0153333Y0129800D01*
X0153333Y0120000D01*
X0157333Y0116000D01*
X0157333Y0114500D01*
X0153187Y0114500D01*
X0152933Y0114246D01*
X0157333Y0114500D02*
X0157333Y0105400D01*
X0173333Y0089400D01*
X0173333Y0084840D01*
X0168333Y0086880D02*
X0167911Y0087899D01*
X0166392Y0089418D01*
X0164407Y0090240D01*
X0162259Y0090240D01*
X0161400Y0089884D01*
X0158873Y0092411D01*
X0157585Y0093700D01*
X0156283Y0093700D01*
X0156283Y0094827D01*
X0155804Y0095984D01*
X0154918Y0096870D01*
X0153760Y0097350D01*
X0153095Y0097350D01*
X0151033Y0099411D01*
X0151033Y0101970D01*
X0151263Y0101416D01*
X0152149Y0100530D01*
X0153307Y0100050D01*
X0154560Y0100050D01*
X0155718Y0100530D01*
X0156604Y0101416D01*
X0157073Y0102549D01*
X0170239Y0089383D01*
X0168755Y0087899D01*
X0168333Y0086880D01*
X0168288Y0086990D02*
X0168379Y0086990D01*
X0168845Y0087988D02*
X0167822Y0087988D01*
X0166823Y0088987D02*
X0169843Y0088987D01*
X0169637Y0089985D02*
X0165023Y0089985D01*
X0167640Y0091982D02*
X0159302Y0091982D01*
X0158304Y0092981D02*
X0166641Y0092981D01*
X0165643Y0093979D02*
X0156283Y0093979D01*
X0156221Y0094978D02*
X0164644Y0094978D01*
X0163646Y0095976D02*
X0155807Y0095976D01*
X0154666Y0096975D02*
X0162647Y0096975D01*
X0161649Y0097973D02*
X0152471Y0097973D01*
X0151473Y0098972D02*
X0160650Y0098972D01*
X0159652Y0099970D02*
X0151033Y0099970D01*
X0151033Y0100969D02*
X0151710Y0100969D01*
X0151033Y0101967D02*
X0151034Y0101967D01*
X0153933Y0103200D02*
X0153933Y0106554D01*
X0152933Y0107554D01*
X0159633Y0106800D02*
X0159633Y0116700D01*
X0155233Y0121100D01*
X0155233Y0130000D01*
X0156421Y0131187D01*
X0157820Y0131187D01*
X0153333Y0129800D02*
X0146133Y0129800D01*
X0140428Y0124094D01*
X0133333Y0124094D01*
X0133333Y0128031D02*
X0139302Y0128031D01*
X0139333Y0128000D01*
X0141863Y0129926D02*
X0143148Y0129926D01*
X0143854Y0130924D02*
X0140505Y0130924D01*
X0138161Y0130924D02*
X0137691Y0130924D01*
X0137691Y0131923D02*
X0143387Y0131923D01*
X0143283Y0132921D02*
X0137691Y0132921D01*
X0137625Y0133920D02*
X0143488Y0133920D01*
X0144097Y0134918D02*
X0137491Y0134918D01*
X0146433Y0132800D02*
X0146433Y0145100D01*
X0149333Y0148000D01*
X0149377Y0143905D02*
X0148633Y0143905D01*
X0132703Y0154888D02*
X0129455Y0154888D01*
X0129455Y0153890D02*
X0131705Y0153890D01*
X0130706Y0152891D02*
X0129455Y0152891D01*
X0129455Y0151893D02*
X0129708Y0151893D01*
X0125786Y0153000D02*
X0125786Y0153547D01*
X0120333Y0159000D01*
X0117386Y0157884D02*
X0115433Y0157884D01*
X0115433Y0158882D02*
X0117183Y0158882D01*
X0117289Y0159881D02*
X0115433Y0159881D01*
X0115433Y0160879D02*
X0117758Y0160879D01*
X0119050Y0161878D02*
X0115433Y0161878D01*
X0115433Y0162876D02*
X0118916Y0162876D01*
X0116561Y0163734D02*
X0116561Y0163734D01*
X0116393Y0163875D02*
X0115433Y0163875D01*
X0123378Y0159881D02*
X0166330Y0159881D01*
X0136697Y0158882D02*
X0123562Y0158882D01*
X0124561Y0157884D02*
X0135699Y0157884D01*
X0134700Y0156885D02*
X0125559Y0156885D01*
X0128894Y0155887D02*
X0133702Y0155887D01*
X0118881Y0153000D02*
X0118881Y0148106D01*
X0119487Y0147500D01*
X0115772Y0155887D02*
X0115433Y0155887D01*
X0115433Y0156885D02*
X0117993Y0156885D01*
X0150133Y0127100D02*
X0150133Y0123800D01*
X0148833Y0122500D01*
X0148833Y0098500D01*
X0153133Y0094200D01*
X0150833Y0091500D02*
X0146533Y0095800D01*
X0146533Y0126400D01*
X0138633Y0117600D02*
X0138633Y0117046D01*
X0141933Y0113746D01*
X0135033Y0113746D02*
X0135033Y0118000D01*
X0134033Y0119000D01*
X0133833Y0119000D01*
X0125671Y0112951D02*
X0115433Y0112951D01*
X0115433Y0111952D02*
X0126670Y0111952D01*
X0127668Y0110954D02*
X0115433Y0110954D01*
X0115433Y0109955D02*
X0128667Y0109955D01*
X0129665Y0108957D02*
X0115433Y0108957D01*
X0115433Y0107958D02*
X0130664Y0107958D01*
X0131365Y0106960D02*
X0115433Y0106960D01*
X0115433Y0105961D02*
X0131365Y0105961D01*
X0131365Y0104963D02*
X0115433Y0104963D01*
X0115433Y0103964D02*
X0131585Y0103964D01*
X0138482Y0103964D02*
X0138485Y0103964D01*
X0139983Y0102966D02*
X0115433Y0102966D01*
X0115433Y0101967D02*
X0139946Y0101967D01*
X0139425Y0100969D02*
X0115433Y0100969D01*
X0115433Y0099970D02*
X0139283Y0099970D01*
X0139450Y0098972D02*
X0115433Y0098972D01*
X0115433Y0097973D02*
X0139983Y0097973D01*
X0139983Y0096975D02*
X0115433Y0096975D01*
X0115433Y0095976D02*
X0139983Y0095976D01*
X0139983Y0094978D02*
X0115433Y0094978D01*
X0115433Y0093979D02*
X0139983Y0093979D01*
X0139983Y0092981D02*
X0115433Y0092981D01*
X0115433Y0091982D02*
X0139983Y0091982D01*
X0139983Y0090984D02*
X0115433Y0090984D01*
X0115433Y0089985D02*
X0132578Y0089985D01*
X0132833Y0089985D02*
X0133833Y0089985D01*
X0134089Y0089985D02*
X0139983Y0089985D01*
X0139843Y0088987D02*
X0136473Y0088987D01*
X0137474Y0087988D02*
X0138845Y0087988D01*
X0138379Y0086990D02*
X0138074Y0086990D01*
X0133833Y0086990D02*
X0132833Y0086990D01*
X0132833Y0087988D02*
X0133833Y0087988D01*
X0133833Y0088987D02*
X0132833Y0088987D01*
X0130194Y0088987D02*
X0115433Y0088987D01*
X0115433Y0087988D02*
X0129193Y0087988D01*
X0128593Y0086990D02*
X0115433Y0086990D01*
X0115433Y0085991D02*
X0128251Y0085991D01*
X0128202Y0083994D02*
X0115433Y0083994D01*
X0115433Y0082996D02*
X0128465Y0082996D01*
X0132833Y0084993D02*
X0115433Y0084993D01*
X0132833Y0085991D02*
X0133833Y0085991D01*
X0150833Y0091500D02*
X0156673Y0091500D01*
X0163333Y0084840D01*
X0161644Y0089985D02*
X0161299Y0089985D01*
X0160301Y0090984D02*
X0168638Y0090984D01*
X0177021Y0093000D02*
X0162021Y0108000D01*
X0162021Y0109700D01*
X0162121Y0109700D01*
X0166087Y0109700D01*
X0162021Y0109700D02*
X0161921Y0109700D01*
X0161921Y0122800D01*
X0161521Y0123200D01*
X0161521Y0127491D01*
X0166639Y0127491D02*
X0166639Y0113506D01*
X0167033Y0113900D01*
X0171780Y0114000D02*
X0171780Y0110700D01*
X0172780Y0109700D01*
X0176645Y0109955D02*
X0183333Y0109955D01*
X0183333Y0108957D02*
X0176645Y0108957D01*
X0176645Y0107958D02*
X0183333Y0107958D01*
X0183333Y0106960D02*
X0176578Y0106960D01*
X0176645Y0110954D02*
X0183333Y0110954D01*
X0183333Y0111952D02*
X0176645Y0111952D01*
X0176067Y0112951D02*
X0183333Y0112951D01*
X0183333Y0113949D02*
X0182210Y0113949D01*
X0182302Y0114948D02*
X0183333Y0114948D01*
X0183333Y0115946D02*
X0182302Y0115946D01*
X0179318Y0114948D02*
X0178349Y0114948D01*
X0178349Y0113949D02*
X0179318Y0113949D01*
X0175456Y0113949D02*
X0174930Y0113949D01*
X0174797Y0114948D02*
X0175365Y0114948D01*
X0175365Y0115946D02*
X0174288Y0115946D01*
X0169333Y0117400D02*
X0169198Y0117535D01*
X0169198Y0127491D01*
X0172887Y0131187D02*
X0174887Y0131187D01*
X0185180Y0130654D02*
X0186733Y0130654D01*
X0159633Y0106800D02*
X0181593Y0084840D01*
X0183333Y0084840D01*
X0185073Y0093000D02*
X0193233Y0084840D01*
X0193333Y0084840D01*
X0198288Y0086990D02*
X0199333Y0086990D01*
X0199333Y0087988D02*
X0197822Y0087988D01*
X0198426Y0088987D02*
X0196823Y0088987D01*
X0197274Y0089985D02*
X0195023Y0089985D01*
X0196121Y0090984D02*
X0190201Y0090984D01*
X0189202Y0091982D02*
X0194969Y0091982D01*
X0193817Y0092981D02*
X0188204Y0092981D01*
X0187205Y0093979D02*
X0192665Y0093979D01*
X0191513Y0094978D02*
X0186207Y0094978D01*
X0185073Y0093000D02*
X0177021Y0093000D01*
X0177156Y0095976D02*
X0190361Y0095976D01*
X0189359Y0096975D02*
X0176157Y0096975D01*
X0175159Y0097973D02*
X0183333Y0097973D01*
X0183333Y0098972D02*
X0174160Y0098972D01*
X0173162Y0099970D02*
X0183333Y0099970D01*
X0183333Y0100969D02*
X0172163Y0100969D01*
X0171165Y0101967D02*
X0183333Y0101967D01*
X0183333Y0102966D02*
X0170166Y0102966D01*
X0169168Y0103964D02*
X0183333Y0103964D01*
X0183333Y0104963D02*
X0168169Y0104963D01*
X0167171Y0105961D02*
X0183333Y0105961D01*
X0191199Y0089985D02*
X0191644Y0089985D01*
X0198701Y0085991D02*
X0199333Y0085991D01*
X0199333Y0084993D02*
X0198733Y0084993D01*
X0198733Y0083994D02*
X0199333Y0083994D01*
X0199333Y0082996D02*
X0198414Y0082996D01*
X0158653Y0100969D02*
X0156157Y0100969D01*
X0156832Y0101967D02*
X0157655Y0101967D01*
D21*
X0204333Y0112193D02*
X0204333Y0124000D01*
X0197680Y0130654D01*
X0192733Y0130654D01*
X0186733Y0130654D01*
X0186733Y0137346D02*
X0192733Y0137346D01*
X0200333Y0137346D01*
X0204333Y0141346D01*
X0204333Y0148807D01*
D22*
X0178333Y0143000D03*
X0178333Y0132000D03*
X0173333Y0122000D03*
X0169333Y0117400D03*
X0167033Y0113900D03*
X0171780Y0114000D03*
X0179333Y0109000D03*
X0162933Y0095700D03*
X0153133Y0094200D03*
X0153933Y0103200D03*
X0142433Y0100000D03*
X0138633Y0117600D03*
X0133833Y0119000D03*
X0139333Y0128000D03*
X0146533Y0126400D03*
X0150133Y0127100D03*
X0146433Y0132800D03*
X0150133Y0133000D03*
X0149933Y0137700D03*
X0152333Y0145000D03*
X0163333Y0149000D03*
X0139333Y0136000D03*
X0136333Y0140900D03*
X0161921Y0122800D03*
X0130333Y0158000D03*
X0120333Y0159000D03*
X0176333Y0162000D03*
D23*
X0169987Y0157000D02*
X0138280Y0157000D01*
X0131333Y0150054D01*
X0131333Y0147000D01*
X0130833Y0147500D01*
X0126180Y0147500D01*
X0131333Y0147000D02*
X0131333Y0144000D01*
X0127180Y0139846D01*
X0127180Y0132000D01*
X0127211Y0131969D01*
X0133333Y0131969D01*
X0127180Y0132000D02*
X0127180Y0114907D01*
X0135033Y0107054D01*
X0141933Y0107054D01*
X0142433Y0106554D01*
X0142433Y0100000D01*
X0142433Y0085740D01*
X0143333Y0084840D01*
X0169198Y0142546D02*
X0169198Y0147000D01*
X0169198Y0149711D01*
X0169987Y0150500D01*
X0169987Y0157000D01*
M02*
